<svg width="246" height="65" viewBox="0 0 246 65" fill="none" xmlns="http://www.w3.org/2000/svg">
<path d="M43.9557 64.8794C43.8788 63.3177 42.6322 61.3077 39.6464 61.3077C37.4763 61.3077 35.9218 62.8693 35.9218 64.8794C29.9041 64.7557 17.8379 64.8949 17.8379 64.8949L18.0072 58.4626H62.1936V64.8949H43.9557V64.8794Z" fill="#7259A0"/>
<path d="M6.37183 62.7147C6.418 61.9262 6.51034 61.1221 6.52573 60.3335C6.61808 56.0505 6.67964 51.7829 6.77198 47.4999C6.84893 43.6344 6.95667 39.7688 7.04901 35.9187C7.04901 35.7177 7.09518 35.5167 7.12597 35.3002C10.3734 35.3002 13.59 35.3002 17.0067 35.3002C16.7913 45.196 16.5758 54.9527 16.3603 64.8176C13.5285 64.8176 10.8505 64.8176 8.15714 64.8176C7.64925 64.7867 7.15675 64.7557 6.47956 64.7248C6.44878 64.0445 6.40261 63.3796 6.37183 62.7147Z" fill="#FEC343"/>
<path d="M59.4231 24.4303C63.3015 27.8629 67.0107 31.1563 70.8583 34.5735C68.6729 34.5735 66.6875 34.5735 64.7021 34.5735C64.3943 34.5735 64.0865 34.5116 63.7787 34.5116C59.3154 34.4343 54.8521 34.3725 50.4042 34.2952C45.6331 34.2024 40.8774 34.0942 36.1064 33.9859C31.2891 33.8777 26.4718 33.7849 21.6546 33.6767C16.8835 33.5685 12.1278 33.4757 7.35671 33.3674C5.26359 33.3211 3.15507 33.2747 1.06195 33.2283C0.738749 33.2283 0.415546 33.1974 0 32.9809C0.861874 32.2542 1.73914 31.5274 2.60101 30.8162C5.34054 28.5742 8.06468 26.3167 10.835 24.1056C11.2044 23.8118 11.743 23.6263 12.2201 23.6263C16.8065 23.6572 21.3929 23.7345 25.9793 23.8273C30.6427 23.92 35.306 24.0283 39.9694 24.1365C44.7097 24.2447 49.45 24.353 54.1903 24.4457C55.9756 24.4612 57.7763 24.4303 59.4231 24.4303Z" fill="#F668A9"/>
<path d="M12.8972 21.276C12.8972 17.8898 12.8972 14.5963 12.8972 11.2874C15.8676 11.2874 18.7149 11.2874 21.6391 11.2874C21.6391 12.679 21.6391 13.9778 21.6391 15.5086C26.4871 11.5812 31.1966 7.76203 35.9677 3.89648C42.8473 9.95766 49.7115 15.9879 56.5604 22.0182C56.5296 22.08 56.4988 22.1573 56.468 22.2192C41.9393 21.9254 27.4259 21.6162 12.8972 21.276Z" fill="#A5D319"/>
<path d="M37.2451 35.594C37.0912 42.5829 36.9527 49.4481 36.7988 56.4371C30.5194 56.2979 24.2708 56.1742 17.9453 56.035C18.0992 49.0771 18.2377 42.1809 18.3916 35.2229C24.6864 35.3311 30.9042 35.4703 37.2451 35.594ZM23.0242 45.9073C23.0088 48.8606 25.3328 51.2727 28.2108 51.3036C31.1812 51.3191 33.5976 48.9688 33.6129 46.0155C33.6283 43.155 31.2428 40.6965 28.4263 40.6656C25.4405 40.6501 23.0396 42.9695 23.0242 45.9073Z" fill="#AACE1A"/>
<path d="M41.2315 35.7022C48.4189 35.8569 55.6063 35.996 62.9015 36.1506C62.763 42.5675 62.6244 48.907 62.4705 55.4939C55.2677 48.8606 48.2034 42.3665 41.1392 35.8723C41.1853 35.795 41.2007 35.7486 41.2315 35.7022Z" fill="#F55E1E"/>
<path d="M60.1772 56.9009C53.0052 56.7463 45.8486 56.6071 38.5842 56.4525C38.7227 49.9893 38.8613 43.6498 38.9998 37.0784C46.1872 43.7117 53.2207 50.2213 60.2542 56.7308C60.2234 56.7927 60.208 56.8391 60.1772 56.9009Z" fill="#7ECFD3"/>
<path d="M16.9912 2.98421C17.1913 2.86051 17.4222 2.69043 17.6222 2.56673C17.8531 2.41211 17.5453 2.16471 17.4529 1.99463C16.9758 1.2679 16.2679 0.6958 15.4675 0.402019C14.4672 0.0309255 13.3129 0.0773118 12.3586 0.541178C12.6203 1.56168 12.6203 2.61311 12.6511 3.66454C12.6818 4.71597 12.7434 5.78287 13.159 6.75699C13.5591 7.73111 14.3594 8.58153 15.3906 8.798C15.0674 7.80842 14.975 6.74152 15.129 5.72102C15.1751 5.45816 15.2213 5.17984 15.2367 4.90152C15.2675 4.08202 14.8673 3.32438 14.4825 2.59765C15.0674 2.98421 15.4983 3.6027 15.6522 4.28303C15.6368 4.22118 15.8677 4.00471 15.9139 3.95833C16.0062 3.85009 16.1139 3.74185 16.2063 3.63362C16.4064 3.43261 16.6372 3.24706 16.8681 3.07698C16.8989 3.04606 16.945 3.01513 16.9912 2.98421Z" fill="#51BE1A"/>
<path d="M16.6989 10.5916C15.6216 8.89077 14.6981 6.15396 16.1448 4.39127C18.0533 2.05647 21.4392 1.23698 22.3319 0C22.3319 0 25.2407 2.58219 23.2553 5.93749C21.2699 9.30825 19.5923 7.90119 17.607 10.2978C17.607 10.2978 16.4988 8.58153 18.7305 6.44774C21.2545 4.03564 21.0698 3.24706 21.0698 3.21614C21.116 3.38622 20.6081 3.85009 20.5004 3.95833C20.1926 4.25211 19.8694 4.54589 19.5462 4.82421C18.9152 5.39631 18.2687 5.95295 17.7301 6.61783C16.822 7.73111 16.2218 9.2464 16.6989 10.5916Z" fill="#51BE1A"/>
<path d="M162.758 25.593C162.224 25.6126 161.777 25.3384 161.295 25.4363C160.848 25.5343 160.417 25.2404 159.953 25.2992C159.488 25.3384 159.006 25.1816 158.541 25.3971C158.111 25.593 157.629 25.26 157.233 25.593C156.769 25.4951 156.304 25.7498 155.822 25.7498C156.218 27.7676 156.562 29.7658 156.579 31.9011C156.373 32.1558 156.166 32.5084 155.874 32.7239C155.598 32.9394 155.271 33.0766 154.962 33.1941C154.635 33.3116 154.308 33.1549 154.015 33.0374C153.344 32.7631 152.707 32.3909 152.449 31.4897C152.432 31.4114 152.38 31.3722 152.363 31.2938C152.328 30.8237 152.277 30.3731 152.242 29.9225C152.208 29.6091 152.156 29.3348 152.122 29.0605C152.105 28.7471 152.053 28.4728 152.019 28.179C151.933 27.6108 152.087 27.0035 151.984 26.4746C151.778 25.2796 151.915 24.065 151.881 22.87C151.881 22.5369 151.967 22.1843 152.001 21.8317C152.019 21.4987 151.933 21.1264 152.019 20.8326C152.122 20.4995 152.053 20.1861 152.139 19.8727C152.225 19.5592 152.208 19.2849 152.26 18.9911C152.397 18.2858 152.466 17.561 152.655 16.8949C152.776 16.4443 152.845 15.9742 152.982 15.5432C153.12 15.1318 153.258 14.6616 153.378 14.2306C153.705 13.0944 154.153 11.9777 154.755 10.9982C155.461 9.86198 156.356 8.92164 157.526 8.43189C157.922 8.27516 158.3 8.11844 158.696 8.02049C159.35 7.82458 160.004 7.90295 160.676 7.90295C161.381 7.90295 162.035 8.17721 162.672 8.47107C163.24 8.72574 163.773 9.07837 164.238 9.56813C164.875 10.2538 165.374 11.057 165.701 11.9581C166.028 12.8005 166.252 13.7213 166.51 14.6028C166.699 15.2297 166.785 15.9154 166.906 16.5619C167.026 17.2084 167.078 17.8744 167.13 18.5209C167.198 19.1674 167.13 19.8531 167.147 20.5387C167.164 20.9305 167.25 21.3027 167.267 21.7141C167.284 22.0864 167.302 22.4782 167.267 22.8504C167.043 24.4568 167.284 26.0828 167.13 27.6696C167.026 28.7275 167.095 29.805 167.009 30.8433C167.009 30.8433 166.992 30.8628 166.975 30.8824C166.648 31.8815 165.908 32.1362 165.064 32.195C164.634 32.2146 164.221 32.2146 163.791 32.0774C163.498 31.9795 163.257 31.8815 163.068 31.6269C162.861 31.3722 162.655 31.1175 162.465 30.8824C162.465 30.2947 162.465 29.7658 162.465 29.2368C162.465 28.9038 162.655 28.6295 162.603 28.2769C162.569 27.9635 162.517 27.6304 162.603 27.3366C162.827 26.788 162.724 26.2199 162.758 25.593ZM162.741 21.8317C162.861 20.3624 162.672 18.9323 162.638 17.5218C162.638 17.4434 162.655 17.3651 162.638 17.3063C162.397 17.0516 162.62 16.699 162.5 16.4443C162.379 16.1701 162.362 15.837 162.276 15.5628C162.087 14.8771 161.966 14.1914 161.639 13.5841C161.502 13.3099 161.312 13.016 161.14 12.7418C160.916 12.3695 160.417 11.9777 160.056 11.9777C159.35 11.9581 158.714 12.1932 158.266 12.7809C157.922 13.2315 157.56 13.7213 157.354 14.2698C157.165 14.7596 156.958 15.2297 156.786 15.7195C156.597 16.2093 156.459 16.7186 156.373 17.2475C156.27 17.8157 156.098 18.3446 156.063 18.9127C156.029 19.3045 156.046 19.7551 155.943 20.1469C155.771 20.7346 155.874 21.2832 155.822 21.8709C158.146 21.8317 160.435 21.8317 162.741 21.8317Z" fill="#F55E1E"/>
<path d="M120.816 30.2947C120.73 30.2555 120.627 30.1772 120.541 30.1772C120.317 30.1576 120.076 30.1576 119.835 30.1772C119.301 30.2555 118.785 30.0596 118.286 29.8637C117.443 29.5503 116.685 29.0213 116.083 28.2965C115.722 27.8459 115.446 27.317 115.137 26.8468C115.102 26.455 115.102 26.1024 115.343 25.8477C115.55 25.6126 115.567 25.162 115.963 25.1424C116.358 24.6919 116.84 24.5351 117.408 24.5743C117.925 24.6135 118.372 24.8094 118.596 25.4167C118.716 25.7302 118.888 26.0044 119.026 26.2787C119.783 26.2787 120.506 26.2787 121.332 26.2787C121.332 26.2787 121.367 26.1611 121.436 26.0632C121.78 25.5538 121.763 25.2012 121.401 24.7311C120.747 23.8887 119.921 23.301 119.095 22.6937C118.888 22.5565 118.699 22.3802 118.493 22.2431C117.649 21.6358 116.823 21.0481 115.98 20.4408C115.343 19.9902 114.896 19.3437 114.465 18.658C114.104 18.0703 113.932 17.3651 113.622 16.7578C113.519 16.5423 113.588 16.3464 113.484 16.1113C113.381 15.8762 113.381 15.5432 113.347 15.2493C113.312 14.8575 113.278 14.4265 113.347 14.0347C113.433 13.5058 113.519 12.9377 113.708 12.4283C114.156 11.2333 114.861 10.2538 115.722 9.43098C116.445 8.74532 117.305 8.23597 118.183 7.94212C118.734 7.74621 119.336 7.5699 119.973 7.60908C120.334 7.62867 120.73 7.58949 121.109 7.60908C121.453 7.62867 121.814 7.64826 122.141 7.74621C123.105 8.02048 124.052 8.33392 124.895 8.99999C125.601 9.56811 126.082 10.293 126.478 11.1353C126.823 11.8798 127.081 12.683 126.977 13.5645C126.736 13.8976 126.702 14.4265 126.358 14.6812C126.048 14.9163 125.721 15.1318 125.394 15.3277C125.067 15.3277 124.74 15.3277 124.396 15.3277C123.57 15.3277 123.002 14.7987 122.692 13.8976C122.468 13.2707 122.227 12.6046 121.883 12.0561C121.591 11.5663 121.143 11.2921 120.592 11.3117C120.369 11.3117 120.128 11.3117 119.887 11.3117C119.164 11.6839 118.613 12.252 118.269 13.2119C118.269 13.3295 118.269 13.5645 118.269 13.7996C118.286 15.4648 118.888 16.7382 120.11 17.6393C120.782 18.1291 121.47 18.6384 122.158 19.1282C122.485 19.3633 122.83 19.5984 123.191 19.7747C123.811 20.1077 124.344 20.5975 124.861 21.0677C125.583 21.7141 125.996 22.6545 126.22 23.6536C126.323 24.065 126.392 24.5156 126.341 24.9661C126.237 26.1611 125.91 27.2386 125.17 28.1398C124.706 28.7275 124.103 29.1389 123.535 29.5111C123.174 29.7462 122.709 29.9029 122.262 29.9813C122.09 30.0009 121.918 30.0988 121.745 30.1184C121.556 30.138 121.384 30.1184 121.177 30.1184C121.091 30.1772 120.988 30.2555 120.816 30.2947Z" fill="#F55E1E"/>
<path d="M88.9245 11.057C87.9607 11.5468 87.4444 12.3891 87.0141 13.3491C86.6527 14.1719 86.4118 15.0338 86.2397 15.9154C86.1708 16.268 86.2225 16.6402 86.1192 16.9145C85.9987 17.2475 86.0331 17.5414 86.0159 17.8744C85.9471 18.4621 85.6201 20.7346 86.2052 22.6937C86.4118 23.3989 86.6527 24.2805 86.9109 24.9857C87.2035 25.8281 87.6681 26.5921 88.3221 26.9644C88.4426 27.0427 88.5975 27.0623 88.718 27.1015C88.8213 27.1407 88.9417 27.1799 89.1138 27.2386C89.1482 27.219 89.2343 27.1211 89.3204 27.1211C90.2841 27.0035 90.7661 26.2395 91.1103 25.3188C91.3168 24.7507 91.4373 24.1825 91.747 23.6732C92.2462 22.87 93.1067 22.5369 93.95 22.7328C94.3975 22.8504 94.7245 23.0463 95.0343 23.4185C95.2408 23.6732 95.4301 23.9279 95.4473 24.3001C95.4645 24.6135 95.6883 24.8878 95.4301 25.1816C95.3268 26.1024 95.0343 26.9056 94.5524 27.6304C93.8467 28.6687 93.055 29.5307 91.9192 29.9617C91.4545 30.1576 90.9554 30.3143 90.4563 30.471C89.9227 30.6278 89.3548 30.7061 88.8212 30.6278C88.064 30.5102 87.2723 30.4123 86.5667 30.0988C85.9643 29.8246 85.3963 29.5111 84.8628 29.0605C84.3121 28.5904 83.8646 28.0027 83.3655 27.4737C82.9008 26.9448 82.6254 26.2199 82.2984 25.5343C81.937 24.7115 81.7477 23.8299 81.4379 22.9875C81.3347 22.7133 81.4379 22.3998 81.3002 22.1255C81.1798 21.8513 81.2658 21.4791 81.1281 21.1852C81.0077 20.8326 81.0421 20.4995 81.0076 20.1469C80.9904 19.8727 81.0076 18.2075 81.0076 17.894C80.9904 17.4826 81.0937 17.0712 81.1281 16.6598C81.1625 16.268 81.3174 15.8566 81.3519 15.4844C81.4551 14.6812 81.7477 13.9955 82.0575 13.2903C82.3501 12.585 82.6599 11.8798 83.0385 11.2529C83.4343 10.6456 83.813 10.0579 84.3809 9.56812C84.9317 9.07837 85.534 8.68656 86.1536 8.31434C86.5839 8.05967 87.0314 7.94213 87.496 7.80499C88.4943 7.49155 89.5785 7.68745 90.5939 7.64827C91.5233 7.98131 92.4871 8.23598 93.3132 8.88246C94.3458 9.70526 94.9998 10.8023 95.3957 12.1345C95.499 12.4675 95.5334 12.7809 95.5678 13.1336C95.585 13.3491 95.6883 13.5254 95.6883 13.7213C95.6711 14.8967 95.499 15.5628 94.4319 15.9938C93.7951 16.2484 93.2616 16.2093 92.642 16.0134C91.9019 15.7783 91.5577 15.1514 91.4373 14.3286C91.3684 13.9564 91.3168 13.5841 91.1963 13.2119C91.1103 12.8789 91.1791 12.5263 91.0586 12.2128C90.8865 11.7427 90.6456 11.39 90.2841 11.1158C90.1465 11.0178 90.0088 10.959 89.8367 10.9786C89.4408 11.0766 89.1655 11.057 88.9245 11.057Z" fill="#F55E1E"/>
<path d="M144.859 31.1763C144.618 31.0391 144.411 30.9804 144.256 30.8432C143.912 30.569 143.706 30.1576 143.602 29.7266C143.465 29.1977 143.327 28.6295 143.327 28.0418C143.327 25.4755 143.327 22.9287 143.327 20.3428C143.327 19.8922 143.43 19.4808 143.447 19.0303C143.465 18.5797 143.516 18.1095 143.447 17.6785C143.241 16.0917 143.361 14.5049 143.327 12.9377C143.327 12.7418 143.241 12.5654 143.189 12.3304C142.484 12.3304 141.795 12.3108 141.09 12.3499C140.728 12.3695 140.367 12.5459 140.005 12.4871C139.661 12.4479 139.3 12.4675 139.007 12.3304C138.663 12.1736 138.353 11.8798 138.164 11.4684C138.095 11.3117 138.026 11.1353 137.923 10.9003C137.923 10.7631 137.923 10.5085 137.923 10.2734C137.923 9.58771 138.198 9.09795 138.68 8.72573C139.076 8.41229 139.627 8.27515 140.126 8.13802C140.728 7.94212 141.313 8.11843 141.916 8.00089C143.172 7.74621 144.394 7.90294 145.65 7.88335C146.907 7.86376 148.18 7.86376 149.437 7.88335C150.091 7.88335 150.745 8.00089 151.416 8.04007C152.018 8.07925 152.586 8.35352 152.982 8.92164C153.12 9.15672 153.275 9.37221 153.223 9.66607C153.154 10.1558 153.309 10.626 153.12 11.1158C153.017 11.3704 152.999 11.7035 152.776 11.8602C152.466 12.0757 152.139 12.3108 151.726 12.3108C150.659 12.2912 149.592 12.3108 148.473 12.3108C148.387 12.4479 148.284 12.6438 148.18 12.8005C148.146 13.0552 148.198 13.3295 148.06 13.6037C147.939 13.8192 148.163 14.1719 147.922 14.4069C147.905 14.4069 147.922 14.4461 147.922 14.4853C147.888 15.0926 147.819 15.6999 147.802 16.2876C147.785 17.0125 147.578 17.7177 147.681 18.4621C147.458 18.9715 147.578 19.52 147.561 20.049C147.526 20.9893 147.371 21.9492 147.458 22.8504C147.578 24.2217 147.526 25.593 147.561 26.9644C147.561 27.1994 147.647 27.4541 147.681 27.6892C147.698 27.9243 147.698 28.1398 147.785 28.3749C147.871 28.5904 147.853 28.8842 147.716 29.1977C147.595 29.5111 147.63 29.8441 147.492 30.1772C147.182 30.8628 146.683 31.0979 146.098 31.1567C145.633 31.2155 145.22 31.1763 144.859 31.1763Z" fill="#F55E1E"/>
<path d="M129.937 12.3695C129.61 12.3891 129.335 12.2128 129.025 12.1345C128.905 12.1149 128.784 12.1149 128.681 12.0953C128.646 11.8602 128.492 11.7818 128.319 11.821C128.337 11.5859 128.251 11.4488 128.078 11.4096C128.078 11.3117 128.096 11.2137 128.078 11.1353C127.906 10.3713 127.906 10.3713 128.199 9.6073C128.268 9.45058 128.285 9.27426 128.319 9.11754C128.354 9.07836 128.405 9.01959 128.44 8.98041C128.509 8.98041 128.612 9 128.629 8.98041C128.956 8.5886 129.369 8.56901 129.8 8.56901C131.314 8.56901 132.812 8.56901 134.344 8.56901C134.86 8.56901 135.376 8.49065 135.945 8.80409C136.564 9.37221 136.685 10.1362 136.65 10.9982C136.65 11.2333 136.564 11.488 136.53 11.7231C136.495 11.7622 136.444 11.821 136.409 11.8602C136.323 11.9581 136.237 12.0561 136.168 12.1345C136.134 12.1736 136.082 12.2324 136.048 12.2716C135.962 12.2716 135.876 12.2716 135.807 12.2716C135.79 11.8602 136.151 11.7818 136.323 11.4292C136.323 11.4096 136.306 11.3117 136.323 11.2137C136.426 10.5085 136.409 10.5085 136.203 9.66607C136.168 9.50935 136.117 9.33303 135.996 9.27426C135.704 9.03918 135.428 8.82368 135.032 8.82368C133.294 8.84328 131.538 8.80409 129.8 8.84327C129.197 8.84327 128.646 9.03918 128.388 9.78361C128.388 10.2538 128.388 10.7631 128.388 11.1549C128.784 11.8994 129.387 12.0365 130.006 12.154C129.937 12.2324 129.937 12.2912 129.937 12.3695Z" fill="#F55E1E"/>
<path d="M97.8742 31.7444C97.5988 31.3526 97.2718 31 97.1169 30.3927C97.1169 30.1576 97.1169 29.8246 96.9964 29.4719C96.8932 29.1389 97.0997 28.7667 96.8587 28.4728C96.8415 28.4532 96.8587 28.3749 96.8587 28.3357C96.8932 27.3562 96.6522 26.3767 96.7383 25.358C96.7727 24.8486 96.6006 24.3588 96.6006 23.8299C96.6006 23.3597 96.7727 22.9092 96.7383 22.4586C96.7383 21.9884 96.6522 21.4791 96.7555 21.0285C96.876 20.4604 96.7727 19.9118 96.876 19.3633C97.0653 18.1879 97.1858 16.9929 97.4783 15.837C97.7537 14.7204 98.0807 13.6233 98.4249 12.5459C98.7347 11.5859 99.1478 10.6456 99.7329 9.86199C99.7673 9.78363 99.7673 9.70526 99.7673 9.60731C99.9911 9.37223 100.232 9.13714 100.439 8.90206C100.886 8.39271 101.402 8.04008 101.987 7.72664C102.538 7.45237 103.123 7.23688 103.726 7.11934C104.156 7.04098 104.569 7.02139 104.999 7.0018C106.307 6.96261 107.46 7.56992 108.545 8.31435C109.078 8.96083 109.698 9.52895 110.111 10.293C110.541 11.057 110.885 12.0561 111.247 13.3491C111.436 13.9956 111.643 14.6812 111.643 15.3865C111.849 15.6607 111.677 16.0721 111.866 16.366C111.901 16.4639 111.884 16.6011 111.901 16.7186C111.935 18.4817 112.073 20.2253 112.038 21.9884C112.004 23.7515 112.038 25.4755 112.021 27.219C112.021 27.9047 112.004 28.5708 111.884 29.2368C111.815 29.6287 111.694 30.0596 111.384 30.3535C111.092 30.6278 110.834 30.8824 110.421 31C109.491 31.2351 108.855 31.0979 108.046 30.6669C107.753 30.5102 107.512 30.2947 107.392 29.9225C107.357 29.8246 107.306 29.707 107.22 29.4719C107.254 29.2173 107.306 28.845 107.357 28.4728C107.426 28.081 107.237 27.6696 107.478 27.2974C107.495 27.2778 107.495 27.1994 107.478 27.1603C107.392 26.3375 107.615 25.5147 107.615 24.7311C107.529 24.6331 107.495 24.5939 107.426 24.5156C105.12 24.2413 102.848 24.2805 100.593 24.7702C100.473 25.0837 100.593 25.2796 100.662 25.5343C100.731 25.7498 100.697 26.0044 100.731 26.2395C100.731 26.3179 100.8 26.3571 100.8 26.4354C100.8 27.0819 100.92 27.6892 101.041 28.3357C101.075 28.5904 101.041 28.8646 101.058 29.1389C101.075 29.3544 101.179 29.5895 101.179 29.7854C101.179 30.2751 101.144 30.7453 101.11 31.1959C100.886 31.4506 100.697 31.6465 100.49 31.8815C100.421 31.8815 100.301 31.862 100.249 31.9011C99.9222 32.1362 99.578 32.1754 99.1994 32.1754C98.9068 32.1754 98.6486 32.1558 98.3905 31.9599C98.2356 31.862 98.0807 31.7052 97.8742 31.7444ZM100.525 20.8914C101.058 20.9893 106.824 20.9893 107.34 20.8914C107.374 20.4995 107.46 20.1273 107.46 19.7159C107.443 18.7756 107.426 17.8549 107.323 16.9145C107.288 16.5619 107.306 16.1701 107.202 15.837C107.099 15.4844 107.168 15.1514 107.065 14.8379C106.927 14.2502 106.755 13.7017 106.6 13.1336C106.411 12.4283 105.929 11.6839 105.395 11.3509C104.776 10.9786 104.139 10.959 103.519 11.3509C102.882 11.7427 102.452 12.4087 102.108 13.114C101.901 13.5058 101.747 13.9368 101.557 14.3482C101.316 14.9359 101.247 15.5824 101.041 16.1897C100.972 16.4052 100.938 16.6402 100.903 16.8362C100.8 17.228 100.886 17.6589 100.783 17.9724C100.679 18.2858 100.697 18.5601 100.679 18.854C100.662 19.187 100.49 19.4613 100.542 19.7943C100.576 20.1665 100.525 20.5387 100.525 20.8914Z" fill="#F55E1E"/>
<path d="M134.739 12.5067C134.619 13.1532 134.515 13.7996 134.447 14.4657C134.378 15.0926 134.447 15.7195 134.326 16.3268C134.206 16.9145 134.223 17.5022 134.223 18.0507C134.206 20.2449 134.24 22.439 134.206 24.6527C134.188 25.3971 134.412 26.122 134.343 26.8664C134.257 26.8664 134.171 26.8664 134.154 26.8664C134.085 26.5138 133.982 26.2395 133.965 25.9457C133.947 25.5539 133.965 25.1229 133.947 24.7311C133.93 24.3197 133.844 23.9083 133.827 23.4969C133.81 22.5761 133.81 21.675 133.827 20.7542C133.844 19.8335 133.758 18.9323 133.93 18.0116C134.033 17.4826 133.844 16.8753 133.965 16.366C134.102 15.8566 133.965 15.3081 134.171 14.8183C134.292 14.5049 134.171 14.1131 134.188 13.7409C134.206 13.3882 134.292 13.016 134.36 12.5654C134.481 12.6046 134.601 12.5459 134.739 12.5067Z" fill="#F55E1E"/>
<path d="M135.754 12.2324C135.634 12.4479 135.445 12.5459 135.221 12.5067C135.049 12.5067 134.894 12.5067 134.722 12.5067C134.791 12.4087 134.842 12.2912 134.911 12.2324C135.221 12.2324 135.479 12.2324 135.754 12.2324Z" fill="#F55E1E"/>
<path d="M135.755 12.2324C135.48 12.2324 135.222 12.2324 134.929 12.2324C134.86 12.3304 134.809 12.4283 134.74 12.5067C134.619 12.5459 134.499 12.6046 134.413 12.6242C134.344 13.0748 134.275 13.4274 134.241 13.7996C134.223 14.1523 134.327 14.5637 134.223 14.8771C134.017 15.3865 134.154 15.9154 134.017 16.4247C133.879 16.9145 134.051 17.5218 133.982 18.0703C133.81 18.9911 133.896 19.8922 133.879 20.813C133.862 21.7337 133.862 22.6349 133.879 23.5556C133.879 23.967 133.982 24.3784 134 24.7898C134.017 25.1816 133.982 25.6126 134.017 26.0044C134.034 26.2787 134.12 26.5725 134.206 26.9252C134.241 26.9252 134.309 26.9252 134.395 26.9252C134.395 27.0035 134.395 27.0623 134.395 27.1799C134.963 27.1799 135.549 27.219 136.082 27.5325C136.943 28.1202 136.685 29.0018 136.513 29.9225C136.289 30.1576 136.013 30.4123 135.841 30.6082C135.411 30.6865 135.032 30.6865 134.74 30.8237C134.55 30.9216 134.395 30.9412 134.206 30.9412C133.586 30.9216 133.001 30.9804 132.416 31.2155C132.175 31.3134 131.882 31.1175 131.659 31.3722C131.211 31.3526 130.781 31.5681 130.316 31.5289C130.006 31.5093 129.714 31.3722 129.404 31.3722C128.801 30.7649 128.543 29.9617 128.578 29.0018C128.887 28.414 129.283 27.9047 129.92 27.748C130.006 27.7284 130.041 27.5912 130.11 27.4933C130.144 27.4541 130.196 27.3953 130.23 27.3562C130.316 27.3562 130.402 27.3562 130.505 27.3562C130.437 26.9448 130.523 26.5921 130.385 26.2199C130.282 25.9457 130.385 25.5734 130.368 25.2404C130.351 24.8878 130.264 24.5547 130.247 24.2413C130.23 23.8495 130.23 23.4185 130.247 23.0267C130.264 22.6153 130.351 22.2039 130.368 21.7925C130.385 20.4995 130.385 19.2262 130.368 17.9332C130.351 16.6402 130.488 15.3473 130.247 14.0543C130.213 13.7996 130.247 13.545 130.247 13.2511C130.247 12.9768 130.247 12.683 130.23 12.4283C130.127 12.4283 130.058 12.4283 129.989 12.4283C129.989 12.3499 129.989 12.2912 129.989 12.1736C129.369 12.0561 128.75 11.919 128.371 11.1745C128.371 10.7827 128.371 10.2538 128.371 9.8032C128.612 9.05877 129.197 8.86287 129.783 8.86287C131.521 8.84328 133.277 8.86287 135.015 8.84328C135.411 8.84328 135.686 9.05877 135.979 9.29385C136.099 9.39181 136.151 9.52894 136.186 9.68566C136.392 10.528 136.392 10.528 136.306 11.2333C136.289 11.3313 136.306 11.4292 136.306 11.4488C136.099 11.7035 135.738 11.8014 135.755 12.2324Z" fill="#F55E1E"/>
<path d="M208.039 35.2455C208.134 35.2455 208.23 35.2455 208.326 35.2455C209.306 35.3407 210.214 35.5311 211.123 35.8644C212.246 36.2928 213.155 36.9355 213.896 37.7924C214.541 38.5303 215.067 39.3872 215.474 40.2917C215.522 40.4107 215.593 40.5535 215.641 40.6726C215.665 40.7916 215.665 40.9106 215.689 40.982C215.832 41.3152 216.024 41.6723 216.143 42.0055C216.454 42.91 216.86 43.7907 216.86 44.7667C217.171 45.0523 216.884 45.4569 217.028 45.7426C217.219 46.1234 217.147 46.4567 217.195 46.8137C217.219 47.2184 217.099 47.5754 217.338 47.9801C217.458 48.1705 217.458 48.5513 217.338 48.7418C217.075 49.1702 217.243 49.5749 217.195 50.0033C217.147 50.2889 217.219 50.5984 217.052 50.9078C216.86 51.2887 216.908 51.7647 216.86 52.217C216.621 53.0501 216.358 53.8594 216 54.6687C215.737 55.2876 215.45 55.8826 215.115 56.4777C214.135 58.0963 212.796 59.3579 211.027 60.0006C210.429 60.2386 209.76 60.429 209.067 60.429C209.019 60.429 208.971 60.429 208.923 60.429C208.828 60.429 208.756 60.429 208.66 60.429C208.373 60.429 208.087 60.4528 207.8 60.4528C207.608 60.4528 207.417 60.4528 207.226 60.429C206.748 60.3814 206.222 60.2624 205.791 60.0482C205.098 59.7625 204.357 59.5721 203.736 59.0484C203.233 58.62 202.755 58.1915 202.277 57.7393C201.966 57.4298 201.799 57.0014 201.536 56.6681C200.795 55.6446 200.484 54.4307 200.078 53.2643C199.958 52.9311 199.887 52.574 199.815 52.2408C199.671 51.2649 199.361 50.3366 199.48 49.3368C199.193 48.837 199.313 48.2895 199.313 47.742C199.313 47.2898 199.432 46.8613 199.48 46.4091C199.528 45.9568 199.337 45.5046 199.647 45.0761C199.528 44.3144 200.03 43.6241 199.982 42.8624C200.365 42.3864 200.269 41.7913 200.532 41.2676C200.795 40.7678 200.962 40.2203 201.225 39.7442C201.608 39.0302 201.99 38.3161 202.66 37.7924C203.21 37.3401 203.64 36.7451 204.261 36.3642C204.835 36.031 205.385 35.8168 206.054 35.6263C206.772 35.4121 207.393 35.2455 208.039 35.2455ZM208.182 53.8118C208.278 53.8118 208.373 53.8118 208.469 53.788C208.636 53.6928 208.756 53.6452 208.852 53.6214C209.569 53.3595 209.784 52.6454 210.214 52.1456C210.525 50.9316 210.955 49.6939 210.908 48.4323C210.884 47.5754 211.075 46.7185 210.74 45.8854C210.86 45.4569 210.597 45.0523 210.549 44.6715C210.501 44.243 210.358 43.8145 210.166 43.4099C209.903 42.7196 209.401 42.2436 208.875 41.7675C208.589 41.7675 208.302 41.7675 208.015 41.7675C207.417 42.1007 206.987 42.553 206.676 43.2195C206.294 43.9574 206.222 44.7191 206.031 45.457C205.911 45.933 205.935 46.4805 205.791 46.9327C205.529 47.6706 205.744 48.4085 205.672 49.1464C205.911 49.3368 205.815 49.5987 205.839 49.8605C205.863 50.1223 205.983 50.408 206.007 50.646C206.054 51.4077 206.317 52.1456 206.748 52.7883C207.106 53.3119 207.561 53.8118 208.182 53.8118Z" fill="#0DAAFE"/>
<path d="M160.058 35.2455C160.153 35.2455 160.225 35.2455 160.32 35.2455C160.631 35.2693 160.942 35.2693 161.253 35.2693C161.707 35.2693 162.185 35.2693 162.639 35.2693C162.807 35.2693 163.022 35.2693 163.189 35.2693C163.883 35.2931 164.552 35.4597 165.245 35.4597C165.389 35.4597 165.532 35.4597 165.676 35.4359C166.751 35.8406 167.875 36.1738 168.353 37.3877C168.377 37.483 168.449 37.5306 168.52 37.6496C168.52 37.8162 168.497 38.078 168.52 38.2923C168.664 39.0064 168.329 39.5538 167.971 40.0775C167.875 40.1965 167.684 40.2203 167.564 40.3393C167.014 40.8154 166.297 40.9106 165.652 41.0296C164.767 41.1724 163.883 41.4343 162.998 41.4343C162.902 41.4343 162.831 41.4343 162.735 41.4343C162.711 41.4343 162.711 41.4343 162.687 41.4343C162.4 41.4343 162.113 41.5533 161.851 41.6009C161.588 41.6485 161.301 41.7199 161.062 41.7675C160.727 41.8627 160.416 42.0055 160.225 42.2674C160.081 42.553 159.986 42.8624 159.938 43.1957C159.89 43.5051 159.938 43.8145 159.938 44.1716C162.281 44.2192 164.504 44.4572 166.727 45.0999C166.99 45.3855 167.301 45.695 167.708 46.0758C167.755 46.5519 167.827 47.1232 167.899 47.6706C167.66 48.0515 167.469 48.3133 167.253 48.718C167.014 48.8132 166.704 48.9084 166.393 49.0988C165.962 49.3368 165.46 49.1464 165.054 49.432C164.958 49.432 164.863 49.432 164.767 49.432C164.146 49.432 163.548 49.5749 162.95 49.5987C162.185 49.5987 161.42 49.8367 160.631 49.8367C160.488 49.8367 160.344 49.8367 160.201 49.8129H160.177C160.034 49.8129 159.89 49.9319 159.723 50.0033C159.603 50.1699 159.46 50.3842 159.293 50.6222C159.269 51.6933 159.125 52.8835 160.273 53.7642C160.536 53.8118 160.894 53.907 161.253 53.9308C161.348 53.9308 161.42 53.9308 161.492 53.9308C162.52 53.9308 163.428 53.55 164.337 53.1691C164.887 52.9311 165.413 52.693 165.986 52.5264C166.249 52.4312 166.488 52.4074 166.751 52.4074C167.66 52.4074 168.401 52.9549 168.76 53.9784C168.879 54.3593 169.166 54.6925 169.07 55.0495C168.903 55.9064 168.879 56.7872 168.497 57.5965C167.732 59.3817 166.417 60.5956 164.672 61.3573C164.122 61.5954 163.548 61.762 162.926 61.8334C162.496 61.881 162.042 61.9762 161.611 61.9762C161.492 61.9762 161.348 61.9762 161.229 61.9524C160.32 61.8096 159.364 61.7858 158.48 61.3573C157.882 61.0717 157.213 60.8575 156.687 60.429C155.922 59.8339 155.085 59.0722 154.655 58.2867C154.153 57.3108 153.746 56.3349 153.579 55.24C153.459 54.5973 153.555 53.9308 153.435 53.3119C153.125 51.8361 153.316 50.3366 153.292 48.8608C153.292 47.8134 153.555 46.7661 153.459 45.7188C153.722 45.1475 153.579 44.5524 153.651 43.9574C153.674 43.6717 153.842 43.3861 153.818 43.0767C153.818 42.791 153.77 42.5292 153.914 42.2435C154.057 41.9817 153.937 41.6247 154.009 41.3152C154.176 40.5535 154.248 39.7918 154.392 39.0064C154.583 37.959 154.989 36.9593 155.826 36.1976C156.113 35.9358 157.141 35.4597 157.5 35.4597H157.523C157.619 35.4597 157.667 35.4597 157.762 35.4597C158.504 35.4835 159.269 35.2455 160.058 35.2455Z" fill="#0DAAFE"/>
<path d="M229.387 35.2455C229.387 35.3883 229.482 35.4121 229.554 35.4121C229.602 35.4121 229.65 35.4121 229.697 35.4121C229.721 35.4121 229.721 35.4121 229.745 35.4121C229.865 35.4597 229.984 35.5311 230.08 35.5787C230.319 35.7215 230.51 35.8882 230.773 35.9834C231.084 36.1024 231.251 36.4594 231.634 36.4594C231.658 36.4594 231.658 36.4594 231.682 36.4594C232.016 36.9355 232.327 37.483 232.734 37.9352C233.021 38.2685 233.021 38.8159 233.427 39.0778C233.331 39.8633 233.714 40.6488 233.594 41.4581C233.427 42.7672 233.092 44.005 232.327 45.1237C231.61 46.2424 230.797 47.2184 229.841 48.0991C229.578 48.3609 229.267 48.5513 228.98 48.7894C228.717 48.9798 228.55 49.3368 228.191 49.4082C228.048 49.432 228 49.6939 227.881 49.8843C228.215 50.2175 228.502 50.5032 228.789 50.7888C229.53 51.5505 230.271 52.3122 230.965 53.1453C231.514 53.788 231.993 54.5021 232.279 55.3114C232.471 55.9303 232.614 56.5729 232.471 57.2394C232.279 58.2153 231.753 58.7628 230.749 59.1199C230.367 59.1199 229.865 59.1199 229.315 59.1199C228.407 58.6914 227.594 58.0725 226.924 57.3108C226.159 56.4539 225.442 55.597 224.701 54.7163C224.581 54.5735 224.534 54.3831 224.318 54.0736C224.295 54.4069 224.295 54.6211 224.271 54.7877C224.223 55.5732 224.247 56.3825 224.079 57.1442C223.888 58.1201 223.434 58.9532 222.454 59.4055C222.334 59.4531 222.191 59.5245 221.976 59.5959C221.808 59.6197 221.665 59.6197 221.497 59.6197C220.876 59.6197 220.183 59.4531 219.537 59.2389C219.37 59.0722 219.202 58.9056 219.035 58.739C218.987 58.6914 218.916 58.62 218.868 58.5724C218.557 57.6441 218.461 56.692 218.533 55.6922C218.557 55.3114 218.533 54.9543 218.533 54.5735C218.533 54.4783 218.414 54.4307 218.366 54.3355C218.366 53.6928 218.366 53.0501 218.366 52.4074C218.366 51.4077 218.366 50.408 218.366 49.4559C218.366 48.8846 218.366 48.2895 218.366 47.7182C218.222 46.5995 218.605 45.5046 218.533 44.3858C218.509 43.1719 218.533 41.9341 218.533 40.7202C218.509 40.3869 218.82 40.1013 218.7 39.7442C218.605 39.4586 218.557 39.173 218.461 38.8635C218.605 38.8397 218.7 38.8159 218.844 38.7445C218.892 38.4351 218.963 38.0542 219.131 37.721C219.537 36.8879 220.254 36.5308 221.067 36.5308C221.976 36.5308 222.788 36.2214 223.601 35.912C224.295 35.6501 224.964 35.4359 225.681 35.2693C226.255 35.1503 226.829 35.1265 227.402 35.1265C227.833 35.1265 228.239 35.1265 228.669 35.1265C228.932 35.2931 229.148 35.2931 229.387 35.2455ZM223.434 46.7185C224.868 45.933 225.896 44.9809 226.59 43.7193C227.068 42.8386 227.594 41.9817 227.426 40.9344C227.307 40.744 227.163 40.5297 227.044 40.3393C226.853 40.3393 226.637 40.3393 226.47 40.3393C226.446 40.3631 226.446 40.3869 226.422 40.3869C226.374 40.4107 226.279 40.4821 226.183 40.5059C225.179 40.7916 224.653 41.6247 224.103 42.3864C223.625 43.0767 223.506 43.886 223.386 44.7191C223.362 45.3141 223.434 45.933 223.434 46.7185Z" fill="#0DAAFE"/>
<path d="M177.367 35.2455C177.414 35.2455 177.51 35.2455 177.558 35.2455C179.016 35.4121 180.355 35.8168 181.431 36.8879C182.052 37.5306 182.722 38.1494 183.056 39.0302C183.2 39.411 183.367 39.7204 183.367 40.1489C183.367 40.5297 183.558 40.8392 183.558 41.1962C183.511 42.2436 182.865 42.91 182.052 43.4337C182.028 43.4337 182.004 43.4337 181.957 43.4337C181.526 43.4337 181.096 43.6241 180.666 43.6241C180.474 43.6241 180.259 43.6003 180.044 43.4813C179.59 43.2195 178.992 43.2433 178.466 43.1481C178.203 43.6241 178.753 43.8384 178.897 44.1478C179.04 44.481 179.351 44.7667 179.614 45.0523C180.092 45.6236 180.642 46.1234 181.096 46.7185C182.028 48.0039 182.913 49.2654 183.558 50.7888C184.156 52.2646 184.323 53.7642 184.204 55.3114C184.156 56.0017 183.941 56.6919 183.75 57.3822C183.511 58.0725 183.248 58.739 182.817 59.2627C182.22 59.9768 181.622 60.6908 180.737 61.1431C180.092 61.4763 179.446 61.6906 178.729 61.8572C178.347 61.9524 177.988 62 177.606 62C177.558 62 177.51 62 177.462 62C175.693 61.9048 174.067 61.4287 172.609 60.3338C171.701 59.6197 170.983 58.8104 170.457 57.8107C170.218 57.3584 170.123 56.8348 169.979 56.3349C169.812 55.6922 169.86 55.0257 169.836 54.4069C169.788 53.4071 170.027 52.4788 170.386 51.5743C170.697 50.7888 171.39 50.1223 172.346 50.1223C172.37 50.1223 172.37 50.1223 172.394 50.1223C172.537 50.1223 172.657 50.1223 172.8 50.1223C173.039 50.1223 173.231 50.1223 173.422 50.1223C174.498 50.7412 175.095 51.6457 175.287 52.8597C175.334 53.1929 175.478 53.55 175.597 53.8594C175.908 54.7639 175.908 54.7639 176.578 55.1924C176.721 55.1924 176.841 55.1924 176.984 55.1924C177.367 55.1924 177.725 55.1447 178.012 54.7877C178.299 53.8832 177.916 53.1215 177.438 52.3836C176.936 51.5505 176.291 50.7888 175.669 50.0509C174.904 49.1464 174.163 48.1943 173.302 47.3612C173.015 47.0756 172.824 46.6709 172.609 46.3377C172.322 45.8616 171.988 45.3617 171.748 44.8619C171.509 44.3858 171.294 43.8622 171.246 43.3385C171.223 42.8862 171.007 42.4578 171.055 42.0055C171.103 40.982 171.318 40.0061 171.677 39.054C172.107 37.9828 172.824 37.1021 173.709 36.4118C174.426 35.8406 175.287 35.5549 176.195 35.4121C176.578 35.3645 176.984 35.2455 177.367 35.2455Z" fill="#0DAAFE"/>
<path d="M192.876 34.8333C192.923 34.8333 192.971 34.8333 193.019 34.8333C193.76 34.9762 194.549 35.0714 195.218 35.4046C195.912 35.7855 196.605 36.1901 197.083 36.8566C197.513 37.4755 197.944 38.1182 198.135 38.8798C198.302 39.4749 198.541 40.0462 198.446 40.6651C198.398 41.0697 198.302 41.4506 198.159 41.8552C197.872 42.6407 197.131 42.9025 196.39 43.0454C196.246 43.0692 196.127 43.0692 196.007 43.0692C195.29 43.0692 194.669 42.7359 194.095 42.2837C193.617 41.879 193.162 41.4506 192.66 41.0697C192.565 41.0221 192.493 40.9745 192.35 40.9269C192.254 41.7124 192.397 42.3075 192.923 42.9263C193.21 43.2358 193.497 43.5452 193.76 43.9023C194.597 44.9496 195.649 45.7827 196.462 46.8062C197.227 47.7345 198.039 48.6629 198.494 49.7816C198.972 50.9717 199.402 52.1381 199.354 53.4473C199.33 53.8995 199.354 54.3756 199.354 54.8278C199.354 55.8037 198.494 57.9222 197.848 58.6601C197.346 59.2314 196.772 59.6598 196.199 60.1121C195.72 60.4929 194.621 60.7072 194.143 60.8738C193.712 61.0166 193.258 61.0404 192.804 61.0404C192.66 61.0404 192.517 61.0404 192.374 61.0404C191.369 61.0404 190.413 60.7548 189.529 60.3263C188.788 59.9931 188.046 59.5646 187.449 58.9933C186.564 58.1364 185.99 57.0891 185.584 55.9228C185.441 55.4705 185.417 54.9468 185.321 54.447C185.297 54.209 185.441 53.9947 185.178 53.8043C185.154 53.7805 185.154 53.6853 185.154 53.6615C185.154 53.6139 185.13 53.5187 185.154 53.4949C185.488 53.0426 185.178 52.4713 185.345 52.0191C185.488 51.6858 185.632 51.305 185.847 50.9956C186.182 50.5433 186.708 50.2815 187.281 50.2101C187.401 50.1862 187.52 50.1862 187.616 50.1862C187.807 50.1862 188.022 50.1862 188.238 50.1862C188.548 50.3767 188.883 50.6385 189.266 50.9003C189.696 51.186 189.887 51.6382 190.031 52.0667C190.294 52.8998 190.652 53.5901 191.322 54.1613C191.656 54.2566 191.967 54.328 192.326 54.328C192.732 54.328 193.091 54.1851 193.401 53.7567C193.545 52.5903 192.995 51.7334 192.278 50.8765C191.441 49.8768 190.533 48.9485 189.768 47.9012C189.433 47.4489 189.003 47.0681 188.644 46.6158C187.999 45.7351 187.186 44.6164 186.971 43.6642C186.779 42.9025 186.54 42.1409 186.54 41.3077C186.54 41.0221 186.684 40.7603 186.732 40.5222C186.755 40.2366 186.612 39.951 186.851 39.6891C187.018 39.4987 186.827 39.2131 187.018 38.9751C187.186 38.7846 187.138 38.4276 187.305 38.2372C187.927 37.3327 188.525 36.4519 189.529 35.8807C190.318 35.4284 191.13 35.0476 192.063 35C192.302 35 192.589 34.8333 192.876 34.8333Z" fill="#0DAAFE"/>
<path d="M110.356 35.2217C110.499 35.2217 110.643 35.2217 110.786 35.2455C112.603 35.4121 114.276 35.9834 115.639 37.2925C116.643 38.2209 117.241 39.3872 117.815 40.5773C118.388 41.7437 118.867 42.9576 119.082 44.243C119.129 44.5286 119.273 44.8143 119.369 45.0285C119.345 45.1951 119.273 45.3379 119.249 45.4807C119.345 45.8854 119.416 46.2662 119.488 46.6709C119.512 46.6709 119.584 46.6709 119.608 46.6709C119.608 46.2662 119.608 45.8854 119.608 45.4807C119.512 44.3144 119.918 43.1481 119.775 41.9817C120.062 41.0772 120.038 40.1251 120.253 39.2206C120.373 38.7683 120.492 38.2923 120.636 37.7924C120.922 36.7927 121.496 36.0548 122.5 35.6977C122.596 35.5549 122.739 35.5311 122.883 35.5311C122.931 35.5311 122.978 35.5311 123.026 35.5311C123.17 35.5311 123.313 35.5073 123.409 35.3645C123.648 35.4121 123.839 35.5073 124.03 35.5311C124.676 35.6263 125.226 35.8406 125.752 36.2928C126.684 37.1497 127.401 38.197 127.903 39.3396C128.501 40.7202 129.099 42.1007 129.696 43.4813C130.174 44.6238 130.581 45.814 131.155 46.8851C131.298 47.147 131.346 47.4564 131.537 47.7182C131.537 47.5516 131.561 47.3374 131.561 47.1708C131.561 45.0285 131.585 42.91 131.561 40.8154C131.537 39.9823 131.609 39.173 131.752 38.3637C132.015 37.0069 133.019 36.15 134.31 36.0548C134.406 36.0548 134.478 36.0548 134.573 36.0548C135.697 36.0548 136.462 36.6261 136.964 37.6734C137.275 38.2685 137.466 38.8873 137.466 39.5538C137.466 44.8381 137.466 50.1461 137.49 55.4304C137.49 55.835 137.299 56.1921 137.299 56.5729C137.299 56.9776 137.346 57.406 137.299 57.7869C137.131 58.6438 136.892 59.5007 136.414 60.191C136.008 60.7861 135.41 61.1907 134.645 61.1907C134.621 61.1907 134.597 61.1907 134.549 61.1907C134.454 61.1907 134.358 61.1907 134.262 61.1907C134.095 61.1907 133.928 61.1907 133.76 61.1907C133.665 61.1431 133.593 61.0479 133.497 61.0241C132.708 60.8337 132.135 60.2624 131.609 59.7149C131.011 59.096 130.485 58.3343 129.935 57.6441C129.075 56.6205 128.549 55.4304 127.855 54.2878C127.449 53.6452 127.138 52.9549 126.708 52.1932C126.612 52.3598 126.588 52.4788 126.541 52.574C126.517 52.5502 126.445 52.5264 126.421 52.5264C126.421 52.8597 126.397 53.2167 126.421 53.55C126.517 54.8591 126.301 56.1445 126.23 57.406C126.206 57.9535 126.062 58.4772 125.895 59.0008C125.728 59.5007 125.465 60.0006 125.154 60.4528C124.891 60.8337 124.508 61.0717 124.15 61.3811C124.126 61.3811 123.002 61.7144 122.978 61.7144C122.931 61.7144 122.859 61.7144 122.811 61.7144C122.357 61.7144 121.927 61.5477 121.544 61.3097C120.66 60.7384 120.086 59.9529 119.894 58.858C119.775 58.3105 119.703 57.8107 119.751 57.2632C119.847 56.5491 119.56 55.8826 119.56 55.1686C119.56 54.4307 119.655 53.6928 119.536 52.9787C119.416 52.336 119.416 51.6933 119.345 51.0506C119.177 51.979 118.843 52.8359 118.508 53.7166C118.46 53.907 118.364 54.1212 118.269 54.3116C117.958 55.0019 117.671 55.6922 117.265 56.3349C116.619 57.406 115.759 58.3581 114.659 59.0722C113.727 59.6673 112.699 60.0006 111.647 60.2624C111.455 60.31 111.216 60.31 111.001 60.31C110.667 60.31 110.284 60.2862 109.949 60.2862C109.902 60.2862 109.854 60.2862 109.806 60.2862C109.782 60.2862 109.758 60.2862 109.758 60.2862C109.423 60.2862 109.113 60.191 108.754 60.1196C108.443 60.0244 108.109 60.072 107.774 59.9529C106.77 59.5721 105.861 59.1674 105.096 58.382C104.307 57.5965 103.638 56.6681 103.136 55.6922C102.849 55.1448 102.658 54.5497 102.562 53.9308C102.467 53.4547 102.132 53.0263 102.18 52.5026C101.797 52.217 102.227 51.7171 101.845 51.4315C101.797 50.8126 101.702 50.2175 101.678 49.5749C101.654 48.718 101.678 47.9087 101.678 47.0517C101.654 46.052 101.845 45.1237 102.012 44.124C102.204 42.91 102.562 41.7437 102.992 40.6011C103.303 39.7204 103.686 38.8159 104.307 38.1018C104.929 37.3877 105.527 36.6737 106.363 36.1976C107.2 35.7453 108.037 35.4597 108.993 35.2931C109.471 35.2931 109.925 35.2217 110.356 35.2217ZM110.81 53.2405C111.455 52.9073 111.886 52.5264 112.149 51.9552C112.722 50.8126 113.033 49.5987 113.081 48.3133C113.129 47.0994 112.985 45.9092 112.746 44.6953C112.579 43.9098 112.34 43.1243 111.886 42.434C111.479 41.8389 111.049 41.5057 110.404 41.5057C110.356 41.5057 110.26 41.5057 110.164 41.5057C110.069 41.6009 109.997 41.6723 109.902 41.7675C109.471 42.2197 109.065 42.6006 108.826 43.2909C108.563 44.0288 108.371 44.7905 108.18 45.5522C107.989 46.3377 107.846 47.1708 107.774 48.0277C107.75 48.4799 107.941 48.8608 107.965 49.2892C107.989 49.7177 108.061 50.1223 108.132 50.5032C108.18 50.7888 108.324 51.0744 108.443 51.3363C108.682 52.0266 109.041 52.5978 109.639 53.0501C110.093 53.1215 110.499 53.2167 110.81 53.2405Z" fill="#0DAAFE"/>
<path d="M147.961 35.2217C148.368 35.2217 148.75 35.2455 149.156 35.3169C150.184 35.4835 151.212 35.3645 152.216 35.4597C152.671 35.7215 153.125 35.912 153.484 36.3166C154.105 37.0545 154.32 38.2447 153.914 39.054C153.364 40.1965 152.479 40.6964 151.212 40.6964C150.949 40.6964 150.71 40.6964 150.447 40.6964C150.017 40.6964 149.611 40.6964 149.18 40.6964C149.18 41.0296 149.18 41.3152 149.18 41.6009C149.18 46.5043 149.18 51.4315 149.18 56.3349C149.18 57.3822 148.75 58.2867 148.105 59.1198C147.674 59.6673 147.077 59.8339 146.431 59.8815C146.264 59.8815 146.096 59.9053 145.953 59.9053C145.69 59.9053 145.403 59.9053 145.164 59.9053C144.925 59.7863 144.734 59.6435 144.519 59.5721C143.634 59.2865 143.18 58.2629 143.084 57.525C143.036 57.0966 142.893 56.7396 142.893 56.2635C142.893 55.835 142.773 55.3828 142.749 54.9305C142.726 54.5021 142.797 54.0498 142.726 53.6214C142.391 51.9552 142.606 50.2413 142.582 48.5275C142.534 46.8137 142.558 45.0999 142.582 43.3861C142.582 42.9338 142.845 42.5292 142.749 42.0531C142.702 41.6247 142.749 41.1724 142.749 40.6726C142.486 40.6726 142.247 40.6726 142.008 40.6726C141.865 40.6726 141.721 40.6726 141.578 40.6964C141.53 40.6964 141.435 40.6964 141.387 40.6964C140.789 40.6964 140.215 40.4583 139.618 40.3155C139.14 40.1965 138.614 39.6252 138.183 38.8873C138.159 38.7921 138.088 38.7445 138.016 38.6255C138.016 38.4351 138.04 38.1494 138.016 37.8876C137.92 37.0307 138.446 36.5308 139.068 36.1262C139.355 35.9358 139.689 35.8168 140.048 35.6501C140.646 35.5549 141.196 35.4835 141.769 35.4597C141.817 35.4597 141.913 35.4597 141.961 35.4597C142.271 35.4597 142.606 35.4835 142.941 35.4835C143.132 35.4835 143.347 35.4597 143.538 35.4359C143.993 35.3169 144.471 35.2931 144.925 35.2931C145.307 35.2931 145.666 35.3169 146.001 35.3169C146.12 35.3169 146.24 35.3169 146.335 35.3169C146.814 35.2931 147.387 35.2217 147.961 35.2217Z" fill="#0DAAFE"/>
<path d="M238.95 35.2455C239.07 35.2455 239.189 35.2455 239.285 35.2455C239.859 35.2931 240.409 35.3883 240.959 35.4359C241.509 35.6977 242.035 35.9834 242.393 36.5546C242.871 37.8162 242.656 38.9587 241.748 40.0299C241.748 42.1959 241.748 44.3858 241.748 46.5519C241.748 48.4323 241.724 50.2651 241.772 52.1456C241.795 52.9311 241.532 53.7166 241.58 54.5259C241.987 54.9067 242.369 55.2876 242.728 55.6446C242.848 55.9779 242.967 56.2159 242.991 56.5015C243.015 56.7872 242.991 57.0728 242.967 57.3346C242.704 58.4058 241.819 58.7628 240.863 59.1913C240.313 59.1913 239.739 59.1913 239.118 59.1913C238.735 59.1913 238.353 59.1913 237.97 59.1913C237.946 59.1913 237.946 59.1913 237.922 59.1913C236.751 59.1913 235.962 58.6438 235.388 57.6679C235.364 57.6203 235.292 57.5727 235.268 57.5488C235.268 57.1204 235.268 56.7157 235.268 56.3587C235.46 56.0493 235.579 55.7398 235.818 55.5018C236.009 55.2638 236.296 55.1209 236.512 54.9543C236.512 54.4069 236.488 53.9308 236.512 53.4309C236.631 51.9552 236.32 50.5032 236.32 49.0512C236.344 47.5992 236.32 46.1472 236.32 44.6715C236.32 43.1957 236.32 41.7199 236.32 40.2203C235.531 39.9823 235.053 39.3396 234.575 38.7445C234.527 38.5065 234.623 38.2685 234.455 38.0066C234.312 37.7448 234.312 37.4354 234.479 37.1259C234.575 37.0069 234.527 36.8165 234.527 36.6499C235.101 35.7691 235.914 35.4597 236.942 35.3883C237.659 35.3883 238.305 35.2455 238.95 35.2455Z" fill="#0DAAFE"/>
<path d="M85.3253 35.2217C85.66 35.2217 85.9708 35.3883 86.3055 35.5311C86.7597 35.7691 87.1901 35.9834 87.4769 36.507C87.8833 37.2211 88.3137 37.8876 88.6244 38.6731C88.9352 39.411 89.2699 40.1489 89.5568 40.8868C90.0349 42.1483 90.4892 43.4099 90.9434 44.6953C91.039 44.5762 91.1107 44.4334 91.1825 44.2906C91.4215 43.7431 91.6845 43.2195 91.8758 42.672C92.067 42.1007 92.3778 41.6009 92.6169 41.0534C92.9277 40.3393 93.4058 39.6966 93.8122 39.0063C93.9317 38.8159 94.0752 38.6255 94.1947 38.4589C94.5772 37.8876 95.5574 36.9593 96.1551 36.6975C96.5615 36.5308 96.9918 36.388 97.4221 36.3166C97.4699 36.3166 97.5416 36.3166 97.5895 36.3166C97.9959 36.3166 98.4262 36.4832 98.7609 36.6975C99.8845 37.2687 100.219 38.2208 100.339 39.2206C100.363 39.6014 100.458 39.9347 100.506 40.2679C100.554 40.6011 100.387 41.0058 100.673 41.339C100.769 41.458 100.673 41.6723 100.673 41.8389C100.673 46.9803 100.673 52.1456 100.673 57.287C100.673 58.1201 100.171 59.5959 99.7411 60.0482C99.4303 60.3576 99.1195 60.667 98.6174 60.7861C98.3066 60.8813 98.0198 60.9051 97.7329 60.9051C97.3504 60.9051 96.9918 60.8575 96.6093 60.667C95.7008 60.2862 95.2944 59.6911 94.888 58.501C94.5533 57.4774 94.2903 56.4301 94.3381 55.3114C94.3621 54.0498 94.3381 52.8121 94.3381 51.5267C93.6927 51.6933 93.1667 52.1456 92.5451 52.3836C91.9714 52.574 91.6606 52.693 91.2542 52.693C90.9673 52.693 90.6565 52.6454 90.2023 52.574C89.3178 52.4312 88.6245 52.0028 87.9312 51.5267H87.9072C87.8833 51.5267 87.8116 51.5505 87.7399 51.5505C87.716 52.2408 87.453 52.9073 87.5008 53.6214C87.5247 54.0022 87.2618 54.3592 87.3335 54.7639C87.3813 55.1686 87.19 55.5018 87.0705 55.8826C86.951 56.2635 86.7836 56.5967 86.688 56.9538C86.5924 57.4536 86.3055 57.8583 86.0425 58.2629C85.7796 58.5962 85.3492 58.8104 85.0145 59.0246C84.5125 59.0246 84.0344 59.0246 83.5562 59.0246C83.2454 58.7628 82.7673 58.7152 82.4804 58.3343C82.0501 57.7869 81.7154 57.1918 81.5481 56.5491C81.3568 55.8112 81.1417 55.0971 81.2134 54.3354C81.2373 53.7166 81.3329 53.0263 81.2134 52.4312C80.9265 51.003 80.9743 49.5511 81.0938 48.1467C81.2851 45.8854 81.0699 43.6003 81.2612 41.339C81.3807 39.9109 81.6437 38.4589 82.2892 37.1735C82.6717 36.4356 83.5562 35.7215 84.3212 35.5549C84.5603 35.5073 84.7994 35.5073 85.0384 35.4121C85.1341 35.2455 85.2297 35.2217 85.3253 35.2217Z" fill="#0DAAFE"/>
</svg>
