<?xml version="1.0" encoding="utf-8"?>
<!-- Generator: Adobe Illustrator 27.0.0, SVG Export Plug-In . SVG Version: 6.00 Build 0)  -->
<svg version="1.1" xmlns="http://www.w3.org/2000/svg" xmlns:xlink="http://www.w3.org/1999/xlink" x="0px" y="0px"
	 viewBox="0 0 712 834.7" style="enable-background:new 0 0 712 834.7;" xml:space="preserve">
<style type="text/css">
	.st0{fill:#0DAAFE;}
	.st1{fill:#B1A2FE;}
	.st2{fill:#FEFEFE;}
	.st3{fill:#FC653F;}
	.st4{fill:#7259A0;}
	.st5{fill:#FEC343;}
	.st6{fill:#F668A9;}
	.st7{fill:#AACE1A;}
	.st8{fill:#F55E1E;}
	.st9{fill:#7ECFD3;}
	.st10{fill:#B2FF39;}
	.st11{fill:#51BE1A;}
</style>
<g id="Layer_2">
</g>
<g id="Layer_1">
	<path class="st0" d="M560.6,569.4c6.3,2.4,12.6,4.9,19.6,7.6c5.5-8.7,16.2-11.7,25.3-16.9c10.7-6.1,22.2-9.1,34.8-4.7
		c8-8,18-11.1,29-11.2c16.7-0.1,27.4,14.8,23.9,31.1c-1.5,7.2,0.2,15.1,1,22.6c0.9,8.4,2.4,16.8,3.8,25.2c0.4,2.2,1.4,4.4,2.6,6.3
		c7.9,11.9,5.7,26.9-5.5,35.8c-8.9,7.1-20.4,9.1-34.5,6.1c-8.5,8-18.4,10.3-29.4,5.2c-14.1,13.8-23.7,15.5-39.6,7
		c-15.4,18-41.5,23.5-65.1,8.6c-6.9,11.6-16.8,19.1-30.4,20.9c-13,1.8-25.2-0.4-36.4-8.6c-8.3,10.1-19,15.5-32,15.9
		c-12.6,0.4-24-2.8-34.1-11.1c-12.5,10.4-26.8,13.8-42.6,11.3c-15.7-2.5-27.9-10.3-35.7-25.4c-6,10.1-14.5,15.5-26,14.8
		c-11.5-0.6-19.6-6.5-24.6-17.5c-5.4,8.5-12.5,13.4-22.2,13.7c-9.5,0.3-16.9-4.2-23.1-10.8c-16.7,11.7-39.1,11.1-52.4-5.6
		c-21.6,2.3-42,0.8-57.3-17.8c-10.7,7.2-21.2,6.4-31.3-0.7c-10.1-7.2-12.7-17.7-13.2-29.9c-1,1.5-2.1,3-3.1,4.5
		c-7.5,11.1-17.3,15.4-28.5,12.4c-11.3-3-19.7-12.7-19.9-25.3c-0.1-10.5,1-21.3,3.1-31.6c3.3-16.1,7.3-32.1,12.2-47.8
		c3.1-10,10.3-17.4,21-20.5c11.2-3.3,22.5,0.7,28.8,10.5c2.1,3.2,3.6,6.7,5.6,10.4c7.1-5.7,15.3-8.3,24.5-7.3
		c9.4,1,16.4,6,20.1,13.6c7.5-1.4,14.5-2.8,21.4-4.1c14.5,0.7,26.9,6.3,37.3,16.8c1.5-1.2,2.6-2.1,3.7-3l0.2,0
		c0.5-0.4,1.1-0.7,1.6-1.1c15.4-5.1,28.5-2,38.7,11.2c0.2,0.2,0.6,0.2,0.9,0.3c10.6-7.3,21.6-8.9,33.1-1.8c1.2,0.8,3.2,0.7,4.8,0.6
		c5.2-0.1,10.3-0.9,15.4-0.6c16,1,32.4,0.3,46.9,7.7c22.3-6,43.6-6.3,64.1,5.1c19.6-13.7,39.1-12.9,57.4,0.7c5.4-4,10-8.8,15.7-11.6
		c14.5-7.3,28.7-5.2,42.1,3.5c0.8,0.6,1.5,1.3,2.3,1.9c0.4,0.4,0.7,0.9,1.2,1.5c0.4-0.7,0.7-1.1,0.9-1.4c0.5-0.5,0.9-1,1.4-1.5
		l0.1-0.1c0.4-0.4,0.7-0.9,1.1-1.3l0,0c0.3-0.3,0.7-0.7,1-1l0,0c0.4-0.4,0.7-0.7,1.1-1.1l0,0c0.4-0.3,0.8-0.7,1.2-1c0,0,0.1,0,0.1,0
		c0.5-0.4,1-0.7,1.6-1.1c0,0,0,0,0,0C535.2,571.2,547.3,568.2,560.6,569.4z M212.3,651.1c3,7,5.8,14.9,9.7,22.1
		c2.9,5.3,6.7,10.5,11.1,14.6c7,6.5,15.8,4.2,19.4-4.5c1.5-3.6,2.6-7.6,3-11.5c1.9-16,3.4-32.1,5.1-48.2c0.6-5.5,1.1-11,1.8-17.9
		c4.3,9,11.5,9.6,18.4,9.9c-1.3,14.8-2.9,29.1-3.7,43.3c-0.5,8.4-0.2,17,0.6,25.4c0.6,6.4,5.2,10.2,11.3,10.9
		c6.2,0.7,10.8-2,13.5-8.1c0.9-2.1,1.9-4.4,2.1-6.6c1.2-16.9,2.2-33.8,3.1-50.8c0.2-3.9,0-7.9,0-12.2c4.3,0,8.1,0.3,11.9-0.1
		c5.7-0.5,9.1-4.3,9.4-9.8c0.3-5.6-2.5-10.2-8.8-10.9c-15.5-1.7-31.1-2.8-46.7-3.2c-3.7-0.1-7.5,3.6-11.5,5.7
		c-0.1-0.2-0.8-1.3-1.2-2.5c-1.6-4.9-4.7-8.1-10-8.3c-5.4-0.2-9.4,2.8-11.2,7.7c-1.6,4.3-2.6,9-3.1,13.5c-1,8.8-1.4,17.6-2.1,26.4
		c-2.5-8-4.2-15.9-6.4-23.7c-1.6-5.8-3.5-11.5-5.6-17c-1.2-3.1-2.8-6.1-4.8-8.7c-6.4-8.4-18.1-7.9-22.6,1.6
		c-3.7,7.9-5.8,16.5-8.5,24.4c-3.1-16.1-5.6-23.1-10.8-29.7c-10.2-13-35.9-20.2-48.9,0.7c-13.1,21-17.4,44.2-11.2,68.5
		c2.4,9.6,7.9,17.2,17.8,20.7c17.1,6.1,32.2,1.1,42.3-13.9c1-1.5,2.5-2.6,4.5-4.8c-0.4,7-0.9,12.5-0.9,18c0,7.5,4.3,13.6,10.1,15
		c6.2,1.5,11.8-1.8,15.4-9.1c1-1.9,1.9-3.9,2.3-6C209.4,664.9,210.9,657.7,212.3,651.1z M84.5,620.5c-1.2,6.3-2.9,12.2-3.2,18.1
		c-0.3,5.3,0.2,11,1.8,16c1.6,5.2,6.7,7.4,12,7.4c5.2,0,7.8-3.9,9.6-8.3c0.6-1.4,1-2.8,1.3-4.3c3-18.1,6.1-36.1,8.8-54.2
		c1.1-7.2,1.9-14.6,1.9-21.9c-0.1-10.1-8-15.3-17.2-10.9c-4.4,2.1-8.3,6.1-11.5,9.9c-4.3,5.2-7.8,11-12,17.1c-0.4-3.1-0.6-5.6-1.1-8
		c-1.8-8.4-3.5-16.9-5.8-25.2c-1.4-5-4.5-9.1-10.2-9.7c-6.1-0.6-10.8,2.2-13.7,7.4c-2.1,3.7-4.2,7.7-5,11.9c-3.6,18.3-7,36.6-9.9,55
		c-0.7,4.5,0.1,9.3,1,13.8c0.9,4.3,4,7.2,8.6,8c4.6,0.8,7.9-1.2,10.1-4.9c1.9-3.2,3.5-6.8,4.7-10.4c1.4-4.1,2.3-8.4,3.5-12.9
		C66.6,623.6,72.6,625,84.5,620.5z M354.7,633.7c-0.5-7,2.1-9.8,8.3-10.4c6.6-0.6,13.3-0.9,19.8-2.1c4.7-0.8,8.2-3.8,8.8-9
		c0.6-5.2-2.3-8.5-6.5-10.9c-2.2-1.2-4.5-2.6-6.9-2.8c-10.4-0.6-20.9-1.4-31.3-1c-7.9,0.3-13.1,5.2-14.8,13.2
		c-4.5,21.7-8,43.6-6.3,65.8c0.4,5.4,2.2,11.3,5.1,15.9c10.6,17.2,41,19.4,54.1,4c3-3.5,4.6-8.4,5.7-12.9c1.2-4.9,0.6-10.2-4-13.6
		c-4.5-3.5-9-1.3-13.6,0.5c-4.3,1.6-8.8,2.9-13.3,3.4c-3.7,0.4-7.3-1.1-8.8-5.2c-1.6-4.2-1.5-8.1,2.6-12.1c2.6,0,5.7,0.1,8.8,0
		c5.8-0.3,11.6-0.6,17.4-1.4c4.7-0.6,7.5-3.7,7.5-8.5c0-4.6-2.3-8.1-6.8-9.4c-3.8-1.1-7.8-1.7-11.7-2.2
		C364.2,634.6,359.4,634.2,354.7,633.7z M517.5,635c-0.1,10.7,1.7,22.2,7.4,32.7c6.4,11.8,15.9,19.1,30,18.7
		c13.9-0.4,24-7,29.5-19.4c11-24.5,8.1-48.4-6.7-70.1c-13.4-19.8-41.5-17.2-52.7,3.9C519.6,611,517.3,622.2,517.5,635z M429.8,629.6
		c0.1-0.4,0.2-0.7,0.2-1.1c1.6,0.4,3.3,0.6,4.8,1.1c4.9,1.6,9.6,1.3,13.5-2.4c3.7-3.4,3.5-7.6,2.4-12c-4.3-18-27.2-25.3-41.4-13.3
		c-11.4,9.6-13,27.5-3.2,41.2c4,5.6,9.4,10.3,13.8,15.7c3.1,3.8,6.1,7.9,8.3,12.2c1.2,2.4,1,5.9-2.6,7c-3.4,0.9-5.9-0.7-7.1-3.9
		c-1.1-3.3-1.8-6.7-3-10c-1.8-5.2-5.4-7.3-10.8-6.9c-5.8,0.4-9.5,4.7-10.7,12.5c-3.1,19.1,7.4,33.3,26.7,36.2
		c17.2,2.6,31.1-8.5,33.5-26.9c1.6-12.3-2.3-23-10.1-32.4C439.6,640.8,434.7,635.2,429.8,629.6z M631,628.1c1.1-1.4,2.3-2.7,3.4-4.1
		c6.6-8.2,12.6-16.8,14.8-27.4c1.8-9,0.3-17.4-6.8-23.8c-6.9-6.4-15.3-6.3-23.4-3.1c-5.5,2.2-10.4,5.7-17.1,9.6
		c-6.9,0.8-11.3,5-11.3,14.1c0.1,9.4,1,18.9,2.1,28.3c1.6,14.4,3.4,28.7,5.3,43.1c0.9,6.5,4.2,9.2,10.4,8.9
		c7.3-0.4,12-5.5,12.1-13.7c0-3.4-0.5-6.8-0.9-11.2c2.7,2.4,4.6,4.1,6.6,5.8c3.2,2.6,6.3,5.4,9.8,7.6c5.4,3.3,10.1,2.9,13.9-0.5
		c3.6-3.3,4.7-9.1,1.8-14.3c-1.9-3.4-4.5-6.7-7.4-9.3C640.4,634.5,635.8,631.7,631,628.1z M490.8,670.7c-6.1,1.2-8.8,0.1-11.3-4.9
		c-0.7-1.3-1.2-2.7-1.9-4.1c-2.2-4.5-5.6-7.1-10.7-6.4c-5,0.6-7.8,4-8.4,8.6c-0.5,4-0.5,8.4,0.4,12.3c3.2,14.2,15.6,22.8,31.4,22.4
		c14-0.4,24.5-9.2,27-23.4c2.4-13.3-2.1-24.7-11.1-34.3c-5.1-5.5-10.7-10.5-16-15.8c-2.4-2.4-5-4.8-3.6-9.9c2.2,1.9,3.8,3.4,5.4,4.8
		c4.1,3.6,9.5,4.6,13.9,2.3c5-2.6,5.6-7,4.9-12c-1.2-9.3-7.7-16.7-16.7-19.1c-17.5-4.7-34.8,13.4-31,32.2
		c2.1,10.6,9.4,17.7,16.4,25.2c3.8,4,7.6,7.9,11,12.2C492.6,663.7,493.6,667.1,490.8,670.7z M657.3,581.9c2.8,20.3,5.5,40.1,8.2,60
		c-0.4,0.5-1,1.2-1.5,1.8c-4.7,6.4-1.8,13.3,6.1,14c3.4,0.3,6.9-0.4,10.3-1.2c5-1.1,8.8-4,10.1-9.3c1.2-5-0.9-8.8-5.6-11
		c-2.8-20.2-5.5-40.1-8.1-59.6c6.4-10.6-0.7-19-7.4-18c-5.3,0.8-10.6,2.5-15.5,4.8c-4,1.8-5.9,5.9-5.1,10.5
		C649.7,578.4,652,581.6,657.3,581.9z"/>
	<path class="st1" d="M246.9,790.8c1.3-6.7,2.4-13.5,3.8-20.2c0.6-2.6,1.5-5.2,2.9-7.4c2.9-4.4,9.2-4.3,10.7,0.7
		c1.7,5.6,2.6,11.7,2.1,17.5c-0.9,10.9-3.1,21.7-8.8,31.4c-4.9,8.3-13.8,9-18.6,0.6c-3.7-6.5-5.7-14.1-8.4-21.2
		c-0.6-1.5-1-3-1.8-5.1c-3.8,9.4-1.2,21-11.6,26.3c-5.8-1.1-8.2-4.3-8.5-9.5c-0.9-14.9,3.7-28.5,9.8-41.7c0.8-1.8,2.2-3.3,3.6-4.7
		c4.5-4.7,10.9-4.5,13.6,1.4c3.8,8.4,6.1,17.5,9,26.2c0.6,1.9,1,3.9,1.5,5.9C246.4,790.9,246.7,790.8,246.9,790.8z"/>
	<path class="st1" d="M494,790.5c3.3,4.1,6.3,7.9,9.2,11.7c1.1,1.4,1.8,3.2,2.5,4.8c1.4,3.3,1.6,6.7-1.8,8.9
		c-3.5,2.3-7.2,1.8-10-1.2c-3-3.3-5.5-7-8.2-10.6c-0.9-1.2-1.6-2.5-2.7-4.2c-2.1,0.7-4,1.3-6.2,2.1c0,4.8,0.2,9.2-0.1,13.6
		c-0.2,3.7-2.2,6.2-6.2,6.7c-4.2,0.5-6.7-2.2-7.9-5.6c-1.3-3.5-2-7.4-2.6-11.1c-1.6-10.7-2.9-21.4-4.4-32c-0.5-3.7,0.5-6.7,4-8.3
		c5.7-2.7,11.2-5.9,17.2-7.8c8.9-2.8,17.5,0.6,21.7,7.7c4.7,7.7,3.6,15.9-2.9,23.4C495.2,789.3,494.6,789.9,494,790.5z M484.7,776.4
		c-0.7-1.2-1.4-2.5-2.4-4.4c-3.2,0.7-6.3,1.3-10,2.1c0.6,4.4,1.2,8.2,1.7,12C480,785.6,482.5,783.4,484.7,776.4z"/>
	<path class="st1" d="M531.4,752.1c3.1-6.2,7.6-7.5,12.2-4.1c9.3,6.9,21.1,30.7,14.2,46.5c-3.7,8.5-11,11.8-19.4,12.8
		c-17.2,2-29.2-10.4-31.5-28.3c-0.8-6.2-0.4-12.6-0.1-18.8c0.3-5.7,4.2-9.9,8.2-9.7c3.9,0.1,8,4.7,8.5,9.8
		c0.5,5.8,0.4,11.7,1.3,17.4c0.6,3.9,2.2,7.6,3.8,11.3c1.7,3.8,5.1,5.2,9.1,4.4c4.2-0.8,5.6-4.3,5.8-7.8c0.4-8.2-2.4-15.7-6.2-22.8
		C535.4,759.1,533.3,755.5,531.4,752.1z"/>
	<path class="st1" d="M183.5,788.3c-4.5-0.5-8.7-1.1-13.1-1.6c-1.5,2.6-2.7,5.3-4.4,7.7c-3.1,4.4-8.2,6.5-11.6,4.6
		c-4.5-2.5-4.7-7.2-3.1-11c3.4-8.4,7.3-16.8,12-24.5c3.2-5.3,7.6-10.2,12.4-14.1c9.6-7.7,22.4-3.2,24.7,8.8
		c2.6,13.8,2.7,27.8-0.5,41.6c-0.9,4-2.8,7.7-7.3,8.6c-5.4,1.1-9.6-2.2-9.7-7.8C182.6,796.7,183.2,792.9,183.5,788.3z M186,776.5
		c0.7-5.8,2.8-11-0.8-16c-5.4,1.3-9.5,7.8-9.2,14.5C179.1,775.4,182.3,775.9,186,776.5z"/>
	<path class="st1" d="M339.3,809.2c-4.4,0.5-8.5,1-12.6,1.5c-1,3.1-1.6,6.3-2.9,9.1c-1.9,3.9-5,7.3-9.7,6.3c-4.7-1-5.7-5.2-5.4-9.5
		c0.8-16.5,5.1-31.9,16-44.6c7.2-8.4,20.3-6.3,24.7,3.9c5.7,13.2,8.5,27.2,8.2,41.7c-0.1,4.1-1.8,8-6,9.6c-5,1.9-9.5-1.3-10.7-7.4
		C340.1,816.6,339.8,813.3,339.3,809.2z M333.5,782.2c-3,5-5.7,9.8-4.4,16.2c3.7-0.5,6.9-0.9,10-1.3
		C340.2,788.6,338.6,783.8,333.5,782.2z"/>
	<path class="st1" d="M432.2,777.8c-1.7,2.2-4.6,4.3-4.9,6.7c-0.8,7-1.4,14.2-0.4,21.1c0.9,6.5,5.2,8.2,11.6,6.2
		c2.5-0.8,4.9-2.1,7.4-3c4.7-1.7,7.3-0.8,9.6,2.9c-1.6,9.5-13.5,17-24.1,15.1c-12.7-2.2-20.3-10.8-21.9-23.8
		c-1.3-10.9,0.8-20.9,7.1-29.8c4.4-6.3,10.4-9.8,18.4-10.3c11.6-0.8,18.4,11.8,17.4,20.5c-0.5,4.4-4.4,7.6-8.7,7.4
		c-4.6-0.2-6.6-3.1-7.1-7.5c-0.2-1.9-1.4-3.6-2.1-5.4C433.8,778,433,777.9,432.2,777.8z"/>
	<path class="st1" d="M579.7,746.3c-3.6,2.1-7,4.3-10.7,6.2c-6.7,3.4-10.8,2.3-13.1-3.8c6.1-9.6,15.4-14.7,26.4-17.4
		c1.3-0.3,2.6-0.5,3.9-0.6c6.4-0.7,10,2.9,8.7,9.2c-2.7,13.3-5.7,26.5-8.6,40.1c7.3-2.2,13.9-8.8,22.4-5.2c2.2,3.8,0.6,6.7-2,8.7
		c-10.2,7.6-21.6,12.2-34.2,11.8c-4.6-3.8-4.5-8.3-3.3-12.7c2.9-10.1,6.2-20,9.2-30C579.1,750.6,579.3,748.4,579.7,746.3
		c0.2-0.1,0.3-0.2-0.1,0.2C579.9,745.9,579.8,746.1,579.7,746.3z"/>
	<path class="st1" d="M132.1,769.5c-1.5-3.4-3.2-7.4-5-11.2c-4.2-9-2.1-15.8,6.7-20.4c6.4-3.4,13.1-6.1,20.5-3.4
		c1.7,0.6,3.4,1.6,4.6,2.8c3.5,3.5,2.2,7.9-2.5,9.1c-3,0.7-6.3,0.8-9.3,1.7c-5.5,1.6-6.9,4.8-4.3,9.8c1.4,2.7,3,5.2,4.5,7.8
		c3.1,5.2,2.3,10.2-1,15c-4.8,7-17.8,11.8-26.2,9.8c-3.7-0.9-7.4-2.2-7.5-6.7c0-5,4-6.4,8.1-7.3
		C127.9,774.9,128.7,774.5,132.1,769.5z"/>
	<path class="st1" d="M282.7,778.8c-6.1-0.9-12.4,0.4-15.6-7.1c1.9-1.6,3.5-4,5.7-4.7c12.6-3.8,25.5-3.5,38.4-1.2
		c1.1,0.2,2,1.1,3.4,2c0.3,11.1-9.8,8.9-16.4,12.6c-1.1,10-2.3,20.6-3.5,31.3c-0.3,2.6-0.4,5.3-1,7.9c-0.9,3.9-3.4,6.2-7.5,5.8
		c-4.4-0.4-6.6-3.6-6.5-7.5c0.1-7.8,0.8-15.6,1.4-23.3C281.6,789.4,282.2,784.3,282.7,778.8z"/>
	<path class="st2" d="M212.3,651.1c-1.5,6.6-2.9,13.8-4.6,20.8c-0.5,2.1-1.4,4.1-2.3,6c-3.6,7.3-9.3,10.6-15.4,9.1
		c-5.8-1.4-10.1-7.5-10.1-15c0-5.5,0.5-11,0.9-18c-2.1,2.2-3.5,3.3-4.5,4.8c-10.2,15-25.2,20-42.3,13.9
		c-9.9-3.5-15.4-11.1-17.8-20.7c-6.2-24.4-1.9-47.5,11.2-68.5c13-20.9,38.7-13.7,48.9-0.7c5.2,6.6,7.6,13.7,10.8,29.7
		c2.7-7.9,4.8-16.6,8.5-24.4c4.5-9.5,16.2-10,22.6-1.6c2,2.6,3.6,5.6,4.8,8.7c2.1,5.6,4,11.3,5.6,17c2.2,7.8,3.9,15.8,6.4,23.7
		c0.7-8.8,1.1-17.6,2.1-26.4c0.5-4.6,1.5-9.2,3.1-13.5c1.8-4.9,5.8-7.8,11.2-7.7c5.3,0.2,8.4,3.4,10,8.3c0.4,1.2,1.1,2.3,1.2,2.5
		c4-2.1,7.8-5.8,11.5-5.7c15.6,0.4,31.2,1.6,46.7,3.2c6.3,0.7,9.1,5.3,8.8,10.9c-0.3,5.5-3.8,9.3-9.4,9.8c-3.8,0.3-7.6,0.1-11.9,0.1
		c0,4.3,0.2,8.2,0,12.2c-1,16.9-2,33.8-3.1,50.8c-0.2,2.3-1.1,4.5-2.1,6.6c-2.7,6.1-7.3,8.8-13.5,8.1c-6.1-0.7-10.7-4.5-11.3-10.9
		c-0.8-8.4-1.1-17-0.6-25.4c0.8-14.3,2.4-28.5,3.7-43.3c-6.9-0.3-14.1-0.9-18.4-9.9c-0.7,6.8-1.3,12.3-1.8,17.9
		c-1.7,16.1-3.2,32.1-5.1,48.2c-0.5,3.9-1.5,7.9-3,11.5c-3.6,8.8-12.4,11-19.4,4.5c-4.4-4.1-8.2-9.3-11.1-14.6
		C218.1,666,215.4,658.1,212.3,651.1z M139,628.2c0.2,0.1,0.5,0.2,0.7,0.4c0.6,3.6,0.5,7.5,2,10.7c1.2,2.5,4.2,5.4,6.6,5.6
		c2.3,0.1,6-2.5,7.1-4.8c5.2-11.5,7.2-23.6,3.1-35.9c-0.9-2.8-3.9-4.8-5.9-7.2c-2.3,2.1-5.8,3.9-6.7,6.5
		C143.1,611.4,141.2,619.9,139,628.2z"/>
	<path class="st2" d="M84.5,620.5c-11.8,4.5-17.9,3.1-26.5-6.1c-1.2,4.5-2.1,8.8-3.5,12.9c-1.2,3.6-2.7,7.1-4.7,10.4
		c-2.2,3.6-5.6,5.7-10.1,4.9c-4.6-0.8-7.7-3.7-8.6-8c-1-4.5-1.7-9.4-1-13.8c2.9-18.4,6.3-36.7,9.9-55c0.8-4.1,2.9-8.1,5-11.9
		c2.9-5.2,7.6-8,13.7-7.4c5.7,0.6,8.9,4.6,10.2,9.7c2.2,8.3,3.9,16.8,5.8,25.2c0.5,2.4,0.7,4.9,1.1,8c4.2-6.1,7.7-11.9,12-17.1
		c3.2-3.9,7.1-7.8,11.5-9.9c9.2-4.4,17.1,0.8,17.2,10.9c0,7.3-0.8,14.6-1.9,21.9c-2.7,18.1-5.8,36.1-8.8,54.2
		c-0.2,1.5-0.7,2.9-1.3,4.3c-1.8,4.4-4.4,8.3-9.6,8.3c-5.3,0-10.4-2.2-12-7.4c-1.6-5.1-2-10.7-1.8-16
		C81.5,632.6,83.3,626.8,84.5,620.5z"/>
	<path class="st2" d="M354.7,633.7c4.8,0.5,9.5,0.9,14.2,1.5c3.9,0.6,7.9,1.2,11.7,2.2c4.5,1.3,6.9,4.7,6.8,9.4
		c0,4.8-2.9,7.9-7.5,8.5c-5.7,0.8-11.6,1-17.4,1.4c-3.1,0.2-6.3,0-8.8,0c-4.1,4-4.2,7.9-2.6,12.1c1.5,4.1,5.1,5.6,8.8,5.2
		c4.5-0.5,9.1-1.8,13.3-3.4c4.6-1.8,9.1-3.9,13.6-0.5c4.5,3.4,5.2,8.7,4,13.6c-1.1,4.5-2.8,9.5-5.7,12.9
		c-13.2,15.4-43.5,13.2-54.1-4c-2.9-4.6-4.7-10.5-5.1-15.9c-1.7-22.3,1.8-44.1,6.3-65.8c1.7-8,6.8-12.9,14.8-13.2
		c10.4-0.4,20.9,0.3,31.3,1c2.3,0.1,4.7,1.6,6.9,2.8c4.2,2.3,7.1,5.7,6.5,10.9c-0.6,5.1-4.1,8.2-8.8,9c-6.5,1.1-13.2,1.4-19.8,2.1
		C356.8,623.9,354.2,626.7,354.7,633.7z"/>
	<path class="st2" d="M517.5,635c-0.2-12.8,2.1-23.9,7.5-34.3c11.2-21.2,39.3-23.7,52.7-3.9c14.8,21.8,17.7,45.6,6.7,70.1
		c-5.6,12.4-15.7,19-29.5,19.4c-14.2,0.4-23.6-6.9-30-18.7C519.2,657.2,517.4,645.7,517.5,635z M542.4,633.6c1.7,6.8,3,14,5.5,20.7
		c0.9,2.4,4.9,5.1,7.5,5.1c2.2,0,5.6-3.2,6.4-5.7c4.8-13.4,3.7-26.8-2.6-39.5c-1.1-2.1-4.3-4.5-6.4-4.4c-2.1,0.1-5.1,2.8-5.9,4.9
		C545,620.5,544,626.8,542.4,633.6z"/>
	<path class="st2" d="M429.8,629.6c4.9,5.7,9.8,11.2,14.6,17c7.7,9.4,11.7,20.1,10.1,32.4c-2.4,18.5-16.3,29.5-33.5,26.9
		c-19.3-2.9-29.8-17.2-26.7-36.2c1.3-7.8,4.9-12,10.7-12.5c5.4-0.4,8.9,1.7,10.8,6.9c1.2,3.3,1.8,6.7,3,10c1.1,3.3,3.7,4.9,7.1,3.9
		c3.6-1,3.9-4.6,2.6-7c-2.2-4.3-5.2-8.4-8.3-12.2c-4.4-5.4-9.8-10.1-13.8-15.7c-9.9-13.7-8.2-31.6,3.2-41.2
		c14.3-12,37.1-4.7,41.4,13.3c1.1,4.5,1.2,8.7-2.4,12c-3.9,3.6-8.6,4-13.5,2.4c-1.6-0.5-3.2-0.8-4.8-1.1
		C430,628.9,429.9,629.2,429.8,629.6z"/>
	<path class="st2" d="M631,628.1c4.9,3.5,9.4,6.4,13.3,9.9c2.9,2.6,5.5,5.9,7.4,9.3c2.9,5.2,1.8,11-1.8,14.3
		c-3.7,3.4-8.5,3.8-13.9,0.5c-3.5-2.2-6.6-5-9.8-7.6c-2-1.6-3.9-3.4-6.6-5.8c0.4,4.4,1,7.8,0.9,11.2c-0.1,8.2-4.8,13.4-12.1,13.7
		c-6.2,0.3-9.5-2.4-10.4-8.9c-1.9-14.3-3.8-28.7-5.3-43.1c-1-9.4-2-18.9-2.1-28.3c-0.1-9,4.4-13.3,11.3-14.1
		c6.7-3.8,11.6-7.4,17.1-9.6c8.1-3.2,16.5-3.3,23.4,3.1c7,6.5,8.6,14.8,6.8,23.8c-2.1,10.6-8.1,19.2-14.8,27.4
		C633.3,625.4,632.1,626.8,631,628.1z M613,618.3c8.9-6.1,15.2-21.9,11.3-27.9C615.1,592.1,609.6,605.6,613,618.3z"/>
	<path class="st2" d="M490.8,670.7c2.8-3.6,1.8-7.1-0.4-9.8c-3.3-4.3-7.2-8.2-11-12.2c-7-7.4-14.2-14.5-16.4-25.2
		c-3.8-18.9,13.5-36.9,31-32.2c9,2.4,15.5,9.8,16.7,19.1c0.6,4.9,0.1,9.4-4.9,12c-4.4,2.3-9.8,1.3-13.9-2.3
		c-1.6-1.5-3.2-2.9-5.4-4.8c-1.4,5.1,1.2,7.5,3.6,9.9c5.3,5.3,10.9,10.3,16,15.8c9,9.7,13.5,21,11.1,34.3c-2.6,14.2-13,23-27,23.4
		c-15.8,0.4-28.2-8.2-31.4-22.4c-0.9-3.9-0.8-8.3-0.4-12.3c0.6-4.7,3.4-8,8.4-8.6c5.2-0.7,8.6,1.9,10.7,6.4c0.7,1.3,1.2,2.7,1.9,4.1
		C482,670.8,484.7,672,490.8,670.7z"/>
	<path class="st2" d="M657.3,581.9c-5.3-0.3-7.6-3.5-8.4-7.9c-0.8-4.6,1.1-8.6,5.1-10.5c4.9-2.2,10.2-4,15.5-4.8
		c6.7-1,13.8,7.5,7.4,18c2.7,19.5,5.4,39.4,8.1,59.6c4.7,2.2,6.8,6,5.6,11c-1.2,5.2-5.1,8.1-10.1,9.3c-3.4,0.8-6.9,1.5-10.3,1.2
		c-7.9-0.7-10.8-7.6-6.1-14c0.5-0.7,1-1.3,1.5-1.8C662.7,621.9,660,602.2,657.3,581.9z"/>
	<path class="st2" d="M522.5,579.9c0,0,0.1,0,0.1,0C522.7,579.9,522.5,579.9,522.5,579.9z"/>
	<path class="st2" d="M518.2,584.3C518.2,584.3,518.2,584.2,518.2,584.3C518.2,584.2,518.2,584.3,518.2,584.3z"/>
	<path class="st2" d="M191.4,569.8c0,0,0.2,0,0.2,0S191.4,569.8,191.4,569.8z"/>
	<path class="st2" d="M519.3,582.9C519.3,582.9,519.3,583,519.3,582.9C519.3,583,519.3,582.9,519.3,582.9z"/>
	<path class="st2" d="M520.3,581.9C520.3,581.9,520.3,582,520.3,581.9C520.3,582,520.3,581.9,520.3,581.9z"/>
	<path class="st2" d="M524.2,578.8C524.2,578.8,524.2,578.8,524.2,578.8C524.2,578.8,524.2,578.8,524.2,578.8z"/>
	<path class="st2" d="M521.3,580.9C521.3,580.9,521.3,580.9,521.3,580.9C521.3,580.9,521.3,580.9,521.3,580.9z"/>
	<g>
		<path class="st3" d="M292.6,130.5c-0.3,0.9-0.8,1.8-0.8,2.8c0,5.4-0.7,10.2-6.8,12.3c-7.5,2.5-14.1,1.2-18.6-3.9
			c-0.4-0.5-0.8-1-1.2-1.6c0.7-8.5,1.3-17.1,2-26.5c-13.3-1.7-25.8-1.9-39.3,0.9c1.1,7.9,1.9,15.2,3.2,22.3
			c1.6,8.8-0.7,13.1-8.4,14.5c-7.4,1.4-14.2-3.2-14.9-11c-1.1-12.1-2.1-24.3-1.9-36.4c0.3-17.8,2.3-35.6,9.7-52.2
			c6.2-13.9,14.9-25.1,31.3-26.9c15.1-1.6,28.6,3.4,36.2,18.3c6.4,12.6,8.9,26.2,9.4,40C293.3,98.8,292.7,114.6,292.6,130.5z
			 M266.5,94.9c0-4.8,0.3-8.9-0.1-13c-1-10.1-1.3-20.3-6.2-29.5c-4.5-8.4-13.4-10-19.7-2.8c-11.4,13-12.1,29.1-12.9,45.4
			C241,94.9,253.6,94.9,266.5,94.9z"/>
		<path class="st3" d="M581.6,120.6c-13.7-2.5-26.5-2.4-40,0.6c1.4,7.8,2.7,14.8,3.9,21.8c0.8,4.5,1.5,9.1-2.8,12.4
			c-4.6,3.5-9.8,3.5-14.5,0.8c-2.3-1.3-5-4.1-5.4-6.6c-4.4-31.1-4.8-62.1,7.2-91.9c7.7-19.1,20.5-27.6,39-26.7
			c12.9,0.6,22.3,6.9,28.3,18.3c6.3,12,9,25.1,9.2,38.5c0.4,18.6-0.4,37.3-0.7,55.9c-0.1,4.8-2.5,7.9-7.2,8.8c-2.9,0.5-6,1-8.9,0.7
			c-8.2-0.9-11-4.4-10.3-12.7C580,134.2,580.8,127.9,581.6,120.6z M580.8,101.5c-0.2-14.3-0.2-28.1-6-41c-5-11.1-15.3-12.2-22.3-2.1
			c-3.1,4.6-5.3,10-6.9,15.3c-2.7,8.8-4.3,17.9-3.6,27.8C554.9,101.5,567.5,101.5,580.8,101.5z"/>
		<path class="st3" d="M374,122.1c-9.3,25.3-41.1,25.2-55.8,14.3c-3.4-2.6-5.3-7.3-7.9-11c1.2-6,5-9.6,11-10.4
			c5.3-0.7,7.5,0.9,10.9,8.2c3.9,0,8.1,0,13.4,0c0.4-0.6,1.3-1.8,2.7-3.6c-1.3-2-2.4-4.7-4.3-6.1c-5.7-4.3-11.7-8.2-17.7-12.1
			c-7.6-4.8-15.9-9.1-20.4-17.2c-15.4-27.4,4-48.8,25.7-53.8c9.2-2.1,18.2-1.6,27,1.9c9.2,3.7,15.5,10.2,18.6,19.6
			c2.4,7.3-0.4,13.3-7.1,15.8c-7.9,2.9-14,0.3-17-7.1c-0.9-2.2-1.7-4.4-2.8-6.4c-2.7-4.9-7.4-7.2-11.9-6.2
			c-5.7,1.3-9.3,5.5-9.7,11.2c-0.6,8.2,2.5,14.8,9,19.5c8,5.7,16.5,10.6,24.6,16.2c6.4,4.4,10.9,10.3,11.9,18.3
			C374.6,116.1,374.1,119.1,374,122.1z"/>
		<path class="st3" d="M143.5,86.1c2.1,9,4.2,18,6.5,27c0.5,2,1.7,4,2.9,5.8c5.8,8.8,15.2,8.2,19.9-1.3c1.3-2.5,2-5.3,3-7.9
			c2.6-6.3,8.6-8.8,15.6-6.6c6,1.9,8.9,7.3,6.9,14c-4,13.6-13.5,21.5-27.1,24.3c-19.1,4-37.7-4.6-46.3-22.3
			c-12.4-25.4-12.5-50.8,3.8-74.8C140,27.8,162.7,22,180.9,30.1c11.3,5,17,13.9,18.7,25.8c0.7,4.9-0.3,9.4-5.1,12
			c-4.4,2.4-13.1,2-16.2-1c-1.4-1.4-2.2-3.6-2.7-5.6c-0.8-3.4-0.9-6.9-1.8-10.3c-2.3-8.5-10.1-10.8-16.4-4.6
			c-6.9,6.8-9.9,15.7-11.4,25c-0.8,4.7-1,9.6-1.4,14.4C144.2,85.9,143.9,86,143.5,86.1z"/>
		<path class="st3" d="M478.8,148.4c-1.4-0.7-2.9-1.5-4.3-2.2c-0.3-0.3-0.5-0.5-0.8-0.8c0,0-0.1-0.1-0.1-0.1
			c-1-3.6-2.8-7.2-2.8-10.8c-0.2-26.8-0.1-53.5-0.1-80.7c-4.2,0-9.5,0-14.9,0c-1.8,0-3.6,0.5-5.5,0.5c-5.7,0-9.3-3.1-9.9-8.4
			c-0.8-6.8,1.8-11.4,7.8-12.4c6.2-1.1,12.5-2,18.8-2.1c16.8-0.1,33.6,0.1,50.4,0.6c6.8,0.2,10.3,5.1,9.9,11.8
			c-0.4,6.9-4.2,10.1-11.6,9.9c-5-0.1-10-0.2-15-0.3c-0.5,0-1,0.2-2.3,0.6c-0.5,1.7-1.5,3.8-1.8,6c-3.2,23.8-4.2,47.7-2.1,71.7
			C495.8,145.3,492.5,148.7,478.8,148.4z"/>
		<path class="st3" d="M386.7,147.1c-0.5-1.8-0.9-3.5-1.4-5.3c-1.3-5.4,0.6-9.1,5.6-11.1c1.4-0.6,2.8-1,4.9-1.8
			c-0.4-1.9-0.7-3.7-1.1-5.5c0-23.1,0-46.2,0-69.6c-1.4-0.4-3-0.9-4.6-1.2c-4.9-0.9-7.3-3.8-7.2-8.6c0.1-5.6,3.3-9.8,8.5-9.9
			c11.3-0.3,22.6-0.2,33.9,0.2c5.2,0.2,6.6,4.7,6.9,9c0.3,4.2-0.4,8.5-5.2,10.2c-1.8,0.7-3.8,1-6.1,1.6c-2.6,23.4-3.6,46.9-1.6,71
			c5.9-0.1,11.4,0.4,14.3,6.2c0,1.8,0.1,3.6,0,5.5c-0.4,5.6-2.4,8-7.9,9c-4.2,0.7-8.5,1-12.7,1.6c-1.5,0.2-14.5,3.4-18.4,2.9
			C391.1,150.8,388.7,149.6,386.7,147.1z"/>
		<path class="st3" d="M473.7,145.4c0.3,0.3,0.5,0.5,0.8,0.8C474.2,145.9,474,145.7,473.7,145.4z"/>
	</g>
	<path class="st0" d="M139,628.2c2.2-8.3,4.1-16.7,6.9-24.8c0.9-2.6,4.4-4.3,6.7-6.5c2,2.4,5,4.5,5.9,7.2
		c4.1,12.3,2.1,24.4-3.1,35.9c-1.1,2.3-4.8,4.9-7.1,4.8c-2.4-0.2-5.4-3.1-6.6-5.6c-1.5-3.2-1.4-7.1-2-10.7
		C139.5,628.4,139.2,628.3,139,628.2z"/>
	<path class="st0" d="M542.4,633.6c1.6-6.8,2.5-13,4.5-18.9c0.7-2.2,3.8-4.9,5.9-4.9c2.1-0.1,5.3,2.3,6.4,4.4
		c6.4,12.7,7.4,26.1,2.6,39.5c-0.9,2.5-4.2,5.8-6.4,5.7c-2.6,0-6.5-2.7-7.5-5.1C545.4,647.6,544.1,640.4,542.4,633.6z"/>
	<path class="st0" d="M613,618.3c-3.3-12.7,2.1-26.2,11.3-27.9C628.2,596.4,621.8,612.1,613,618.3z"/>
	<g>
		<path class="st2" d="M522.6,579.2c0,0,0.1,0,0.1,0C522.7,579.2,522.6,579.2,522.6,579.2z"/>
		<path class="st2" d="M191.5,569.1c0,0,0.2,0,0.2,0S191.5,569.1,191.5,569.1z"/>
		<path class="st2" d="M524.3,578.1C524.3,578.1,524.3,578,524.3,578.1C524.3,578,524.3,578.1,524.3,578.1z"/>
		<g>
			<path class="st4" d="M416.5,556.4c-0.5-10.1-8.6-23.1-28-23.1c-14.1,0-24.2,10.1-24.2,23.1c-39.1-0.8-117.5,0.1-117.5,0.1
				l1.1-41.6H535l0,41.6H416.5z"/>
			<path class="st2" d="M473.8,144.7c0.3,0.3,0.5,0.5,0.8,0.8C474.3,145.2,474,144.9,473.8,144.7z"/>
			<path class="st5" d="M172.3,542.4c0.3-5.1,0.9-10.3,1-15.4c0.6-27.7,1-55.3,1.6-83c0.5-25,1.2-50,1.8-74.9c0-1.3,0.3-2.6,0.5-4
				c21.1,0,42,0,64.2,0c-1.4,64-2.8,127.1-4.2,190.9c-18.4,0-35.8,0-53.3,0c-3.3-0.2-6.5-0.4-10.9-0.6
				C172.7,550.9,172.5,546.6,172.3,542.4z"/>
			<path class="st6" d="M517,294.7c25.2,22.2,49.3,43.5,74.3,65.6c-14.2,0-27.1,0-40,0c-2,0-4-0.4-6-0.4c-29-0.5-58-0.9-86.9-1.4
				c-31-0.6-61.9-1.3-92.9-2c-31.3-0.7-62.6-1.3-93.9-2c-31-0.7-61.9-1.3-92.9-2c-13.6-0.3-27.3-0.6-40.9-0.9
				c-2.1,0-4.2-0.2-6.9-1.6c5.6-4.7,11.3-9.4,16.9-14c17.8-14.5,35.5-29.1,53.5-43.4c2.4-1.9,5.9-3.1,9-3.1
				c29.8,0.2,59.6,0.7,89.4,1.3c30.3,0.6,60.6,1.3,90.9,2c30.8,0.7,61.6,1.4,92.4,2C494.6,294.9,506.3,294.7,517,294.7z"/>
			<path class="st3" d="M214.7,274.5c0-21.9,0-43.2,0-64.6c19.3,0,37.8,0,56.8,0c0,9,0,17.4,0,27.3c31.5-25.4,62.1-50.1,93.1-75.1
				c44.7,39.2,89.3,78.2,133.8,117.2c-0.2,0.4-0.4,0.9-0.6,1.3C403.4,278.5,309.1,276.5,214.7,274.5z"/>
			<path class="st7" d="M372.9,366.9c-1,45.2-1.9,89.6-2.9,134.8c-40.8-0.9-81.4-1.7-122.5-2.6c1-45,1.9-89.6,2.9-134.6
				C291.3,365.3,331.7,366.1,372.9,366.9z M280.5,433.7c-0.1,19.1,15,34.7,33.7,34.9c19.3,0.1,35-15.1,35.1-34.2
				c0.1-18.5-15.4-34.4-33.7-34.6C296.2,399.6,280.6,414.6,280.5,433.7z"/>
			<path class="st8" d="M398.8,367.6c46.7,1,93.4,1.9,140.8,2.9c-0.9,41.5-1.8,82.5-2.8,125.1c-46.8-42.9-92.7-84.9-138.6-126.9
				C398.4,368.3,398.6,367.9,398.8,367.6z"/>
			<path class="st9" d="M521.9,504.8c-46.6-1-93.1-1.9-140.3-2.9c0.9-41.8,1.8-82.8,2.7-125.3c46.7,42.9,92.4,85,138.1,127.1
				C522.2,504.1,522.1,504.4,521.9,504.8z"/>
			<path class="st2" d="M280.5,433.7c0.1-19.1,15.7-34.1,35.2-33.9c18.3,0.2,33.8,16.1,33.7,34.6c-0.1,19.1-15.7,34.3-35.1,34.2
				C295.5,468.5,280.4,452.9,280.5,433.7z"/>
			<path class="st10" d="M229.2,169.5"/>
		</g>
		<path class="st11" d="M241.3,156.2c1.3-0.8,2.8-1.9,4.1-2.7c1.5-1-0.5-2.6-1.1-3.7c-3.1-4.7-7.7-8.4-12.9-10.3
			c-6.5-2.4-14-2.1-20.2,0.9c1.7,6.6,1.7,13.4,1.9,20.2c0.2,6.8,0.6,13.7,3.3,20c2.6,6.3,7.8,11.8,14.5,13.2
			c-2.1-6.4-2.7-13.3-1.7-19.9c0.3-1.7,0.6-3.5,0.7-5.3c0.2-5.3-2.4-10.2-4.9-14.9c3.8,2.5,6.6,6.5,7.6,10.9
			c-0.1-0.4,1.4-1.8,1.7-2.1c0.6-0.7,1.3-1.4,1.9-2.1c1.3-1.3,2.8-2.5,4.3-3.6C240.7,156.6,241,156.4,241.3,156.2z"/>
		<path class="st11" d="M239.4,205.3c-7-11-13-28.7-3.6-40.1c12.4-15.1,34.4-20.4,40.2-28.4c0,0,18.9,16.7,6,38.4
			s-23.8,12.7-36.7,28.2c0,0-7.2-11.1,7.3-24.9c16.4-15.6,15.2-20.7,15.2-20.9c0.3,1.1-3,4.1-3.7,4.8c-2,1.9-4.1,3.8-6.2,5.6
			c-4.1,3.7-8.3,7.3-11.8,11.6C240.2,186.8,236.3,196.6,239.4,205.3C239.4,205.3,239.4,205.3,239.4,205.3z"/>
	</g>
</g>
</svg>
