<?xml version="1.0" encoding="utf-8"?>
<!-- Generator: Adobe Illustrator 27.0.0, SVG Export Plug-In . SVG Version: 6.00 Build 0)  -->
<svg version="1.1" id="Layer_1" xmlns="http://www.w3.org/2000/svg" xmlns:xlink="http://www.w3.org/1999/xlink" x="0px" y="0px"
	 viewBox="0 0 502 496" style="enable-background:new 0 0 502 496;" xml:space="preserve">
<style type="text/css">
	.st0{fill:#7259A0;}
	.st1{fill:#FEC343;}
	.st2{fill:#F668A9;}
	.st3{fill:#FF5E37;}
	.st4{fill:#AACE1A;}
	.st5{fill:#F55E1E;stroke:#FF5E37;stroke-miterlimit:10;}
	.st6{fill:#7ECFD3;}
	.st7{fill:#B2FF39;}
	.st8{fill:#51BE1A;}
</style>
<g id="Layer_2_00000087412386267084565070000010395466074403757213_">
</g>
<g>
	<g>
		<path class="st0" d="M307.6,458.2c-0.5-10.1-8.6-23.1-28-23.1c-14.1,0-24.2,10.1-24.2,23.1c-39.1-0.8-117.5,0.1-117.5,0.1
			l1.1-41.6h287.1v41.6H307.6V458.2z"/>
		<path class="st1" d="M63.4,444.2c0.3-5.1,0.9-10.3,1-15.4c0.6-27.7,1-55.3,1.6-83c0.5-25,1.2-50,1.8-74.9c0-1.3,0.3-2.6,0.5-4
			c21.1,0,42,0,64.2,0c-1.4,64-2.8,127.1-4.2,190.9c-18.4,0-35.8,0-53.3,0c-3.3-0.2-6.5-0.4-10.9-0.6
			C63.9,452.8,63.6,448.5,63.4,444.2z"/>
		<path class="st2" d="M408.1,196.6c25.2,22.2,49.3,43.5,74.3,65.6c-14.2,0-27.1,0-40,0c-2,0-4-0.4-6-0.4c-29-0.5-58-0.9-86.9-1.4
			c-31-0.6-61.9-1.3-92.9-2c-31.3-0.7-62.6-1.3-93.9-2c-31-0.7-61.9-1.3-92.9-2c-13.6-0.3-27.3-0.6-40.9-0.9c-2.1,0-4.2-0.2-6.9-1.6
			c5.6-4.7,11.3-9.4,16.9-14c17.8-14.5,35.5-29.1,53.5-43.4c2.4-1.9,5.9-3.1,9-3.1c29.8,0.2,59.6,0.7,89.4,1.3
			c30.3,0.6,60.6,1.3,90.9,2c30.8,0.7,61.6,1.4,92.4,2C385.7,196.8,397.4,196.6,408.1,196.6z"/>
		<path class="st3" d="M105.8,176.2c0-21.9,0-43.2,0-64.6c19.3,0,37.8,0,56.8,0c0,9,0,17.4,0,27.3c31.5-25.4,62.1-50.1,93.1-75.1
			C300.4,103,345,142,389.5,181c-0.2,0.4-0.4,0.9-0.6,1.3C294.5,180.4,200.2,178.4,105.8,176.2z"/>
		<path class="st4" d="M264,268.8c-1,45.2-1.9,89.6-2.9,134.8c-40.8-0.9-81.4-1.7-122.5-2.6c1-45,1.9-89.6,2.9-134.6
			C182.4,267.1,222.8,268,264,268.8z M171.6,335.5c-0.1,19.1,15,34.7,33.7,34.9c19.3,0.1,35-15.1,35.1-34.2
			c0.1-18.5-15.4-34.4-33.7-34.6C187.3,301.5,171.7,316.5,171.6,335.5z"/>
		<path class="st5" d="M289.9,269.5c46.7,1,93.4,1.9,140.8,2.9c-0.9,41.5-1.8,82.5-2.8,125.1c-46.8-42.9-92.7-84.9-138.6-126.9
			C289.6,270.1,289.7,269.8,289.9,269.5z"/>
		<path class="st6" d="M413,406.6c-46.6-1-93.1-1.9-140.3-2.9c0.9-41.8,1.8-82.8,2.7-125.3c46.7,42.9,92.4,85,138.1,127.1
			C413.3,405.9,413.2,406.2,413,406.6z"/>
		<path class="st7" d="M120.3,71.3"/>
	</g>
	<path class="st8" d="M132.4,57.9c1.3-0.8,2.8-1.9,4.1-2.7c1.5-1-0.5-2.6-1.1-3.7c-3.1-4.7-7.7-8.4-12.9-10.3
		c-6.5-2.4-14-2.1-20.2,0.9c1.7,6.6,1.7,13.4,1.9,20.2s0.6,13.7,3.3,20c2.6,6.3,7.8,11.8,14.5,13.2c-2.1-6.4-2.7-13.3-1.7-19.9
		c0.3-1.7,0.6-3.5,0.7-5.3c0.2-5.3-2.4-10.2-4.9-14.9c3.8,2.5,6.6,6.5,7.6,10.9c-0.1-0.4,1.4-1.8,1.7-2.1c0.6-0.7,1.3-1.4,1.9-2.1
		c1.3-1.3,2.8-2.5,4.3-3.6C131.8,58.3,132.1,58.1,132.4,57.9z"/>
	<path class="st8" d="M130.5,107.1c-7-11-13-28.7-3.6-40.1c12.4-15.1,34.4-20.4,40.2-28.4c0,0,18.9,16.7,6,38.4
		c-12.9,21.8-23.8,12.7-36.7,28.2c0,0-7.2-11.1,7.3-24.9c16.4-15.6,15.2-20.7,15.2-20.9c0.3,1.1-3,4.1-3.7,4.8
		c-2,1.9-4.1,3.8-6.2,5.6c-4.1,3.7-8.3,7.3-11.8,11.6C131.3,88.6,127.4,98.4,130.5,107.1L130.5,107.1z"/>
</g>
</svg>
